<svg xmlns="http://www.w3.org/2000/svg" fill="none" viewBox="0 0 73 72">
  <rect width="72" height="72" x=".5" fill="#090A0B" rx="16"/>
  <g fill="#fff" clip-path="url(#a)">
    <path d="M40.25 18.5c.6875 0 1.25.5594 1.25 1.25v3.75c1.3828 0 2.5 1.1172 2.5 2.5v7.5c0 1.3828-1.1172 2.5-2.5 2.5v3.75c0 .6875-.5625 1.25-1.25 1.25S39 40.4375 39 39.75V36c-1.3828 0-2.5-1.1172-2.5-2.5V26c0-1.3828 1.1172-2.5 2.5-2.5v-3.75c0-.6906.5625-1.25 1.25-1.25ZM49 27.25c0-.6875.5625-1.25 1.25-1.25s1.25.5625 1.25 1.25V31c1.3828 0 2.5 1.1172 2.5 2.5v5c0 1.3828-1.1172 2.5-2.5 2.5v3.75c0 .6875-.5625 1.25-1.25 1.25S49 45.4375 49 44.75V41c-1.3828 0-2.5-1.1172-2.5-2.5v-5c0-1.3828 1.1172-2.5 2.5-2.5v-3.75ZM26.5 28.5c0-1.3828 1.1172-2.5 2.5-2.5v-3.75c0-.6906.5625-1.25 1.25-1.25s1.25.5594 1.25 1.25V26c1.3828 0 2.5 1.1172 2.5 2.5v10c0 1.3828-1.1172 2.5-2.5 2.5v3.75c0 .6875-.5625 1.25-1.25 1.25S29 45.4375 29 44.75V41c-1.3828 0-2.5-1.1172-2.5-2.5v-10Z"/>
    <path d="M19 18.5c1.3805 0 2.5 1.1195 2.5 2.5v26.25c0 .6875.5594 1.25 1.25 1.25H54c1.3828 0 2.5 1.1172 2.5 2.5s-1.1172 2.5-2.5 2.5H22.75c-3.4516 0-6.25-2.7969-6.25-6.25V21c0-1.3805 1.1195-2.5 2.5-2.5Z" opacity=".4"/>
  </g>
  <defs>
    <clipPath id="a">
      <path fill="#fff" d="M0 0h40v40H0z" transform="translate(16.5 16)"/>
    </clipPath>
  </defs>
</svg>