<svg width="21" height="22" viewBox="0 0 21 22" fill="none" xmlns="http://www.w3.org/2000/svg">
    <path d="M12.3488 11.002C12.8715 11.0953 13.3148 11.3707 13.6788 11.828C14.0428 12.2853 14.2248 12.8033 14.2248 13.382C14.2248 13.8767 14.0942 14.3247 13.8328 14.726C13.5808 15.118 13.2122 15.4307 12.7268 15.664C12.2415 15.888 11.6768 16 11.0328 16H7.14082V6.27H10.8508C11.5135 6.27 12.0828 6.382 12.5588 6.606C13.0348 6.83 13.3942 7.13333 13.6368 7.516C13.8795 7.88933 14.0008 8.30933 14.0008 8.776C14.0008 9.336 13.8515 9.80267 13.5528 10.176C13.2542 10.5493 12.8528 10.8247 12.3488 11.002ZM8.73682 10.358H10.7108C11.2335 10.358 11.6395 10.2413 11.9288 10.008C12.2275 9.76533 12.3768 9.42 12.3768 8.972C12.3768 8.53333 12.2275 8.19267 11.9288 7.95C11.6395 7.698 11.2335 7.572 10.7108 7.572H8.73682V10.358ZM10.8928 14.698C11.4342 14.698 11.8588 14.5673 12.1668 14.306C12.4748 14.0447 12.6288 13.6807 12.6288 13.214C12.6288 12.738 12.4655 12.36 12.1388 12.08C11.8122 11.8 11.3782 11.66 10.8368 11.66H8.73682V14.698H10.8928Z" fill="#090A0B" />
    <rect x="1" y="1" width="19" height="20" rx="3" stroke="#090A0B" stroke-width="2" />
</svg>
    