<svg width="594" height="481" viewBox="0 0 594 481" fill="none" xmlns="http://www.w3.org/2000/svg">
    <g opacity="0.16">
        <path opacity="0.04" d="M344.637 285.246C344.605 264.951 386.12 248.434 437.363 248.353C488.606 248.273 530.172 264.659 530.204 284.954C530.236 305.249 488.721 321.766 437.478 321.847C386.235 321.927 344.669 305.541 344.637 285.246Z" fill="#111111" />
        <path opacity="0.08" d="M347.091 285.242C347.06 265.484 387.477 249.403 437.364 249.325C487.252 249.246 527.719 265.2 527.75 284.958C527.781 304.716 487.364 320.797 437.477 320.875C387.589 320.954 347.122 305 347.091 285.242Z" fill="#111111" />
        <path opacity="0.12" d="M349.543 285.238C349.513 266.017 388.833 250.373 437.366 250.296C485.899 250.22 525.268 265.74 525.298 284.962C525.328 304.183 486.009 319.827 437.475 319.904C388.942 319.98 349.574 304.46 349.543 285.238Z" fill="#111111" />
        <path opacity="0.15" d="M351.998 285.234C351.968 266.549 390.19 251.342 437.367 251.268C484.545 251.194 522.814 266.281 522.843 284.966C522.873 303.651 484.651 318.858 437.474 318.932C390.296 319.006 352.027 303.919 351.998 285.234Z" fill="#212529" />
        <path opacity="0.19" d="M354.45 285.23C354.421 267.082 391.545 252.312 437.369 252.24C483.192 252.168 520.363 266.821 520.391 284.97C520.42 303.118 483.296 317.888 437.472 317.96C391.649 318.032 354.478 303.379 354.45 285.23Z" fill="#212529" />
        <path opacity="0.23" d="M356.904 285.226C356.877 267.615 392.903 253.281 437.371 253.211C481.839 253.141 517.909 267.362 517.937 284.973C517.965 302.585 481.939 316.919 437.471 316.989C393.003 317.059 356.932 302.838 356.904 285.226Z" fill="#212529" />
        <path opacity="0.27" d="M359.357 285.223C359.33 268.148 394.259 254.251 437.372 254.183C480.486 254.115 515.458 267.902 515.485 284.977C515.512 302.052 480.583 315.949 437.469 316.017C394.356 316.085 359.383 302.298 359.357 285.223Z" fill="#212529" />
        <path opacity="0.31" d="M361.811 285.219C361.785 268.68 395.615 255.22 437.373 255.154C479.132 255.089 513.004 268.443 513.03 284.981C513.056 301.52 479.226 314.98 437.468 315.046C395.709 315.111 361.837 301.757 361.811 285.219Z" fill="#212529" />
        <path opacity="0.35" d="M364.263 285.215C364.238 269.213 396.971 256.19 437.375 256.126C477.779 256.063 510.553 268.983 510.578 284.985C510.603 300.987 477.87 314.01 437.466 314.074C397.062 314.137 364.288 301.217 364.263 285.215Z" fill="#131313" />
        <path opacity="0.38" d="M366.717 285.211C366.693 269.746 398.328 257.159 437.377 257.098C476.425 257.036 508.1 269.524 508.124 284.989C508.148 300.454 476.513 313.041 437.465 313.102C398.416 313.164 366.742 300.676 366.717 285.211Z" fill="#131313" />
        <path opacity="0.42" d="M369.169 285.207C369.146 270.279 399.684 258.129 437.378 258.069C475.072 258.01 505.648 270.064 505.672 284.993C505.695 299.921 475.157 312.071 437.463 312.131C399.769 312.19 369.193 300.136 369.169 285.207Z" fill="#131313" />
        <path opacity="0.46" d="M371.624 285.203C371.601 270.811 401.041 259.098 437.38 259.041C473.718 258.984 503.195 270.605 503.217 284.997C503.24 299.389 473.8 311.102 437.461 311.159C401.123 311.216 371.646 299.595 371.624 285.203Z" fill="#141414" />
        <path opacity="0.5" d="M374.076 285.2C374.054 271.344 402.397 260.068 437.381 260.013C472.365 259.958 500.744 271.145 500.765 285.001C500.787 298.856 472.444 310.132 437.46 310.187C402.476 310.242 374.098 299.055 374.076 285.2Z" fill="#141414" />
        <path opacity="0.54" d="M376.53 285.196C376.509 271.877 403.754 261.037 437.383 260.984C471.012 260.931 498.29 271.686 498.311 285.004C498.332 298.323 471.087 309.163 437.459 309.216C403.83 309.269 376.551 298.514 376.53 285.196Z" fill="#151515" />
        <path opacity="0.58" d="M378.983 285.192C378.962 272.41 405.11 262.007 437.384 261.956C469.659 261.905 495.839 272.226 495.859 285.008C495.879 297.79 469.732 308.193 437.457 308.244C405.183 308.295 379.003 297.974 378.983 285.192Z" fill="#151515" />
        <path opacity="0.62" d="M381.435 285.188C381.415 272.942 406.466 262.976 437.386 262.927C468.306 262.879 493.388 272.766 493.407 285.012C493.426 297.258 468.376 307.224 437.456 307.273C406.535 307.321 381.454 297.433 381.435 285.188Z" fill="#151515" />
        <path opacity="0.65" d="M383.889 285.184C383.87 273.475 407.822 263.946 437.387 263.899C466.952 263.853 490.934 273.307 490.952 285.016C490.971 296.725 467.019 306.254 437.454 306.301C407.889 306.347 383.907 296.893 383.889 285.184Z" fill="#161616" />
        <path opacity="0.69" d="M386.341 285.18C386.323 274.008 409.178 264.915 437.389 264.871C465.599 264.826 488.483 273.847 488.5 285.02C488.518 296.192 465.663 305.285 437.452 305.329C409.242 305.374 386.359 296.353 386.341 285.18Z" fill="#161616" />
        <path opacity="0.73" d="M388.795 285.176C388.779 274.541 410.535 265.885 437.39 265.843C464.245 265.8 486.029 274.388 486.046 285.024C486.063 295.659 464.306 304.315 437.451 304.358C410.596 304.4 388.812 295.812 388.795 285.176Z" fill="#161616" />
        <path opacity="0.77" d="M391.248 285.173C391.232 275.073 411.891 266.854 437.392 266.814C462.893 266.774 483.578 274.928 483.594 285.027C483.61 295.127 462.95 303.346 437.449 303.386C411.949 303.426 391.264 295.272 391.248 285.173Z" fill="#161616" />
        <path opacity="0.81" d="M393.702 285.169C393.687 275.606 413.248 267.824 437.393 267.786C461.539 267.748 481.124 275.469 481.139 285.031C481.154 294.594 461.593 302.376 437.448 302.414C413.303 302.452 393.717 294.731 393.702 285.169Z" fill="#161616" />
        <path opacity="0.85" d="M396.154 285.165C396.14 276.139 414.604 268.793 437.395 268.757C460.186 268.721 478.673 276.009 478.687 285.035C478.701 294.061 460.237 301.407 437.446 301.443C414.655 301.479 396.168 294.191 396.154 285.165Z" fill="#171717" />
        <path opacity="0.88" d="M398.608 285.158C398.595 276.669 415.961 269.76 437.397 269.726C458.832 269.692 476.22 276.547 476.233 285.036C476.246 293.525 458.88 300.435 437.445 300.468C416.009 300.502 398.622 293.647 398.608 285.158Z" fill="#171717" />
        <path opacity="0.92" d="M401.06 285.155C401.048 277.203 417.317 270.73 437.398 270.699C457.479 270.667 473.768 277.088 473.781 285.041C473.793 292.994 457.524 299.466 437.443 299.498C417.362 299.529 401.073 293.108 401.06 285.155Z" fill="#171717" />
        <path opacity="0.96" d="M403.515 285.151C403.503 277.735 418.674 271.7 437.4 271.67C456.125 271.641 471.315 277.629 471.326 285.045C471.338 292.461 456.167 298.497 437.442 298.526C418.716 298.555 403.527 292.567 403.515 285.151Z" fill="#181818" />
        <path opacity="0.16" d="M405.967 285.147C405.956 278.268 420.03 272.669 437.401 272.642C454.772 272.615 468.863 278.169 468.874 285.049C468.885 291.928 454.812 297.527 437.44 297.554C420.069 297.582 405.978 292.027 405.967 285.147Z" fill="#181818" />
    </g>
    <g opacity="0.34">
        <path opacity="0.04" d="M82.5226 335.01C82.4962 318.257 116.766 304.622 159.066 304.556C201.365 304.489 235.677 318.017 235.704 334.77C235.73 351.523 201.461 365.158 159.161 365.225C116.861 365.291 82.5489 351.764 82.5226 335.01Z" fill="#111111" />
        <path opacity="0.08" d="M84.5466 335.007C84.521 318.697 117.885 305.423 159.067 305.359C200.249 305.294 233.655 318.463 233.68 334.773C233.706 351.082 200.342 364.356 159.16 364.421C117.978 364.486 84.5722 351.316 84.5466 335.007Z" fill="#111111" />
        <path opacity="0.12" d="M86.5725 335.004C86.5475 319.137 119.005 306.223 159.068 306.16C199.131 306.097 231.629 318.909 231.654 334.776C231.679 350.643 199.221 363.557 159.158 363.62C119.095 363.683 86.5974 350.871 86.5725 335.004Z" fill="#111111" />
        <path opacity="0.15" d="M88.5963 335.001C88.5721 319.576 120.124 307.023 159.069 306.962C198.015 306.9 229.606 319.355 229.63 334.779C229.654 350.204 198.102 362.758 159.157 362.819C120.212 362.88 88.6206 350.425 88.5963 335.001Z" fill="#212529" />
        <path opacity="0.19" d="M90.6225 334.998C90.599 320.018 121.244 307.825 159.071 307.766C196.897 307.706 227.58 319.802 227.604 334.783C227.627 349.764 196.982 361.956 159.156 362.016C121.329 362.075 90.646 349.979 90.6225 334.998Z" fill="#212529" />
        <path opacity="0.23" d="M92.6464 334.994C92.6236 320.456 122.363 308.624 159.072 308.566C195.78 308.508 225.557 320.247 225.58 334.786C225.603 349.324 195.863 361.156 159.155 361.214C122.446 361.271 92.6692 349.533 92.6464 334.994Z" fill="#212529" />
        <path opacity="0.27" d="M94.6725 334.991C94.6504 320.896 123.484 309.424 159.073 309.368C194.663 309.312 223.532 320.693 223.554 334.789C223.576 348.885 194.743 360.357 159.153 360.413C123.564 360.469 94.6947 349.087 94.6725 334.991Z" fill="#212529" />
        <path opacity="0.31" d="M96.6963 334.988C96.6749 321.336 124.602 310.225 159.074 310.171C193.546 310.117 221.509 321.14 221.53 334.792C221.551 348.444 193.624 359.555 159.152 359.609C124.68 359.663 96.7178 348.64 96.6963 334.988Z" fill="#212529" />
        <path opacity="0.35" d="M98.7225 334.985C98.7018 321.775 125.723 311.025 159.076 310.972C192.429 310.92 219.483 321.586 219.504 334.795C219.525 348.005 192.504 358.755 159.151 358.808C125.798 358.86 98.7433 348.194 98.7225 334.985Z" fill="#131313" />
        <path opacity="0.38" d="M100.746 334.982C100.726 322.215 126.842 311.824 159.077 311.774C191.312 311.723 217.46 322.032 217.48 334.799C217.5 347.565 191.385 357.956 159.15 358.007C126.914 358.057 100.766 347.749 100.746 334.982Z" fill="#131313" />
        <path opacity="0.42" d="M102.773 334.978C102.753 322.655 127.962 312.626 159.078 312.577C190.194 312.528 215.435 322.478 215.454 334.801C215.473 347.124 190.264 357.154 159.148 357.203C128.032 357.252 102.792 347.301 102.773 334.978Z" fill="#131313" />
        <path opacity="0.46" d="M104.799 334.975C104.78 323.095 129.082 313.426 159.08 313.378C189.077 313.331 213.409 322.924 213.428 334.805C213.447 346.685 189.144 356.355 159.147 356.402C129.15 356.449 104.817 346.856 104.799 334.975Z" fill="#141414" />
        <path opacity="0.5" d="M106.823 334.972C106.805 323.534 130.201 314.225 159.081 314.18C187.96 314.134 211.386 323.37 211.404 334.808C211.422 346.246 188.025 355.555 159.146 355.601C130.266 355.646 106.841 346.41 106.823 334.972Z" fill="#141414" />
        <path opacity="0.54" d="M108.849 334.969C108.831 323.975 131.322 315.027 159.082 314.983C186.842 314.939 209.361 323.817 209.378 334.811C209.395 345.805 186.905 354.753 159.145 354.797C131.384 354.84 108.866 345.963 108.849 334.969Z" fill="#151515" />
        <path opacity="0.58" d="M110.872 334.966C110.856 324.414 132.441 315.826 159.083 315.784C185.726 315.742 207.337 324.262 207.354 334.814C207.371 345.366 185.786 353.954 159.143 353.996C132.501 354.038 110.889 345.518 110.872 334.966Z" fill="#151515" />
        <path opacity="0.62" d="M112.899 334.963C112.883 324.854 133.561 316.626 159.084 316.586C184.608 316.546 205.312 324.708 205.328 334.818C205.344 344.927 184.665 353.155 159.142 353.195C133.618 353.235 112.914 345.072 112.899 334.963Z" fill="#151515" />
        <path opacity="0.65" d="M115.684 334.302C115.684 324.636 135.469 316.801 159.875 316.801C184.281 316.801 204.066 324.636 204.066 334.302C204.066 343.967 184.281 351.803 159.875 351.803C135.469 351.803 115.684 343.967 115.684 334.302Z" fill="#161616" />
        <path opacity="0.69" d="M116.949 334.956C116.934 325.733 135.8 318.227 159.087 318.19C182.374 318.154 201.263 325.601 201.278 334.824C201.292 344.047 182.426 351.553 159.14 351.59C135.853 351.626 116.963 344.179 116.949 334.956Z" fill="#161616" />
        <path opacity="0.73" d="M118.972 334.953C118.959 326.173 136.919 319.027 159.088 318.992C181.257 318.957 199.24 326.047 199.254 334.827C199.268 343.608 181.307 350.754 159.138 350.789C136.969 350.823 118.986 343.734 118.972 334.953Z" fill="#161616" />
        <path opacity="0.77" d="M120.999 334.95C120.985 326.613 138.039 319.828 159.089 319.795C180.14 319.762 197.215 326.493 197.228 334.83C197.241 343.167 180.187 349.952 159.137 349.985C138.087 350.018 121.012 343.286 120.999 334.95Z" fill="#161616" />
        <path opacity="0.81" d="M123.023 334.945C123.01 327.051 139.159 320.626 159.091 320.595C179.023 320.563 195.192 326.937 195.204 334.832C195.217 342.726 179.068 349.15 159.136 349.182C139.204 349.213 123.035 342.839 123.023 334.945Z" fill="#161616" />
        <path opacity="0.85" d="M125.049 334.942C125.037 327.49 140.279 321.426 159.092 321.396C177.906 321.366 193.166 327.383 193.178 334.835C193.19 342.286 177.948 348.351 159.135 348.381C140.321 348.41 125.06 342.393 125.049 334.942Z" fill="#171717" />
        <path opacity="0.88" d="M127.075 334.938C127.064 327.93 141.4 322.227 159.096 322.199C176.791 322.171 191.145 327.83 191.156 334.838C191.167 341.845 176.831 347.549 159.136 347.577C141.44 347.604 127.086 341.946 127.075 334.938Z" fill="#171717" />
        <path opacity="0.92" d="M129.101 334.935C129.091 328.37 142.52 323.027 159.097 323.001C175.674 322.975 189.12 328.276 189.13 334.841C189.141 341.406 175.711 346.75 159.134 346.776C142.558 346.802 129.111 341.501 129.101 334.935Z" fill="#171717" />
        <path opacity="0.96" d="M131.889 334.299C131.889 328.177 144.42 323.213 159.877 323.213C175.335 323.213 187.866 328.177 187.866 334.299C187.866 340.422 175.335 345.386 159.877 345.386C144.42 345.386 131.889 340.422 131.889 334.299Z" fill="#181818" />
        <path opacity="0.34" d="M133.151 334.929C133.142 329.25 144.759 324.628 159.099 324.605C173.439 324.583 185.071 329.168 185.08 334.847C185.089 340.526 173.471 345.148 159.132 345.171C144.792 345.193 133.16 340.608 133.151 334.929Z" fill="#181818" />
    </g>
    <g opacity="0.34">
        <path opacity="0.04" d="M285.555 436.484C285.529 419.731 319.799 406.096 362.098 406.029C404.398 405.963 438.71 419.49 438.737 436.243C438.763 452.997 404.494 466.632 362.194 466.698C319.894 466.765 285.582 453.237 285.555 436.484Z" fill="#111111" />
        <path opacity="0.08" d="M287.579 436.481C287.554 420.172 320.918 406.898 362.1 406.833C403.282 406.769 436.687 419.938 436.713 436.247C436.739 452.557 403.375 465.831 362.193 465.895C321.01 465.96 287.605 452.791 287.579 436.481Z" fill="#111111" />
        <path opacity="0.12" d="M289.605 436.478C289.581 420.611 322.038 407.697 362.101 407.634C402.164 407.571 434.662 420.383 434.687 436.25C434.712 452.117 402.254 465.031 362.191 465.093C322.128 465.156 289.63 452.345 289.605 436.478Z" fill="#111111" />
        <path opacity="0.15" d="M291.629 436.475C291.605 421.05 323.157 408.496 362.102 408.435C401.048 408.374 432.639 420.828 432.663 436.253C432.687 451.678 401.135 464.231 362.19 464.292C323.245 464.354 291.653 451.899 291.629 436.475Z" fill="#212529" />
        <path opacity="0.19" d="M293.655 436.471C293.632 421.49 324.277 409.298 362.103 409.238C399.93 409.179 430.613 421.275 430.637 436.256C430.66 451.237 400.015 463.429 362.189 463.488C324.362 463.548 293.679 451.452 293.655 436.471Z" fill="#212529" />
        <path opacity="0.23" d="M295.679 436.468C295.656 421.93 325.396 410.098 362.105 410.04C398.813 409.982 428.59 421.721 428.613 436.259C428.636 450.797 398.896 462.63 362.187 462.687C325.479 462.745 295.702 451.006 295.679 436.468Z" fill="#212529" />
        <path opacity="0.27" d="M297.705 436.465C297.683 422.369 326.516 410.897 362.106 410.841C397.695 410.785 426.564 422.167 426.587 436.263C426.609 450.358 397.776 461.83 362.186 461.886C326.596 461.942 297.727 450.561 297.705 436.465Z" fill="#212529" />
        <path opacity="0.31" d="M299.729 436.462C299.708 422.81 327.635 411.699 362.107 411.645C396.579 411.59 424.542 422.614 424.563 436.265C424.584 449.917 396.657 461.028 362.185 461.082C327.713 461.137 299.751 450.113 299.729 436.462Z" fill="#212529" />
        <path opacity="0.35" d="M301.755 436.459C301.735 423.249 328.756 412.498 362.108 412.446C395.461 412.394 422.516 423.059 422.537 436.269C422.557 449.478 395.536 460.229 362.184 460.281C328.831 460.334 301.776 449.668 301.755 436.459Z" fill="#131313" />
        <path opacity="0.38" d="M303.779 436.456C303.759 423.689 329.875 413.298 362.11 413.247C394.345 413.197 420.493 423.505 420.513 436.272C420.533 449.039 394.418 459.43 362.182 459.48C329.947 459.531 303.799 449.222 303.779 436.456Z" fill="#131313" />
        <path opacity="0.42" d="M305.805 436.452C305.786 424.129 330.995 414.099 362.111 414.05C393.227 414.002 418.467 423.952 418.487 436.275C418.506 448.598 393.297 458.628 362.181 458.676C331.065 458.725 305.825 448.775 305.805 436.452Z" fill="#131313" />
        <path opacity="0.46" d="M307.832 436.449C307.813 424.568 332.115 414.899 362.112 414.852C392.109 414.805 416.442 424.398 416.461 436.278C416.479 448.159 392.177 457.828 362.18 457.875C332.183 457.922 307.85 448.33 307.832 436.449Z" fill="#141414" />
        <path opacity="0.5" d="M309.855 436.446C309.837 425.008 333.234 415.699 362.114 415.653C390.993 415.608 414.419 424.844 414.437 436.282C414.455 447.72 391.058 457.029 362.179 457.074C333.299 457.12 309.873 447.884 309.855 436.446Z" fill="#141414" />
        <path opacity="0.54" d="M311.881 436.442C311.864 425.448 334.354 416.5 362.115 416.457C389.875 416.413 412.393 425.29 412.411 436.285C412.428 447.279 389.938 456.227 362.177 456.27C334.417 456.314 311.899 447.437 311.881 436.442Z" fill="#151515" />
        <path opacity="0.58" d="M313.905 436.439C313.889 425.888 335.473 417.3 362.116 417.258C388.759 417.216 410.37 425.736 410.387 436.288C410.403 446.84 388.819 455.427 362.176 455.469C335.534 455.511 313.922 446.991 313.905 436.439Z" fill="#151515" />
        <path opacity="0.62" d="M315.932 436.437C315.916 426.327 336.594 418.1 362.117 418.06C387.641 418.019 408.345 426.182 408.361 436.291C408.377 446.401 387.698 454.628 362.175 454.668C336.651 454.708 315.947 446.546 315.932 436.437Z" fill="#151515" />
        <path opacity="0.65" d="M317.955 436.433C317.94 426.768 337.713 418.901 362.119 418.863C386.524 418.824 406.322 426.629 406.337 436.294C406.352 445.96 386.579 453.826 362.174 453.864C337.768 453.903 317.97 446.098 317.955 436.433Z" fill="#161616" />
        <path opacity="0.69" d="M319.982 436.43C319.967 427.207 338.833 419.701 362.12 419.664C385.407 419.627 404.296 427.074 404.311 436.297C404.325 445.52 385.459 453.027 362.172 453.063C338.886 453.1 319.996 445.653 319.982 436.43Z" fill="#161616" />
        <path opacity="0.73" d="M322.005 436.427C321.991 427.647 339.952 420.5 362.121 420.466C384.29 420.431 402.273 427.52 402.287 436.301C402.301 445.081 384.34 452.227 362.171 452.262C340.002 452.297 322.019 445.207 322.005 436.427Z" fill="#161616" />
        <path opacity="0.77" d="M324.032 436.423C324.018 428.087 341.072 421.302 362.122 421.269C383.173 421.236 400.248 427.967 400.261 436.304C400.274 444.64 383.22 451.425 362.17 451.458C341.12 451.491 324.045 444.76 324.032 436.423Z" fill="#161616" />
        <path opacity="0.81" d="M326.055 436.42C326.043 428.526 342.191 422.101 362.124 422.07C382.056 422.039 398.224 428.413 398.237 436.307C398.249 444.201 382.101 450.626 362.169 450.657C342.236 450.689 326.068 444.315 326.055 436.42Z" fill="#161616" />
        <path opacity="0.85" d="M328.082 436.417C328.07 428.966 343.312 422.901 362.125 422.872C380.938 422.842 396.199 428.859 396.211 436.31C396.222 443.762 380.981 449.827 362.167 449.856C343.354 449.886 328.093 443.869 328.082 436.417Z" fill="#171717" />
        <path opacity="0.88" d="M330.105 436.414C330.094 429.406 344.431 423.703 362.126 423.675C379.822 423.647 394.176 429.305 394.187 436.313C394.198 443.321 379.862 449.024 362.166 449.052C344.47 449.08 330.116 443.422 330.105 436.414Z" fill="#171717" />
        <path opacity="0.92" d="M332.131 436.409C332.121 429.844 345.551 424.5 362.127 424.474C378.704 424.448 392.15 429.749 392.161 436.315C392.171 442.88 378.741 448.223 362.165 448.249C345.588 448.275 332.142 442.974 332.131 436.409Z" fill="#171717" />
        <path opacity="0.96" d="M334.158 436.405C334.148 430.282 346.671 425.299 362.129 425.275C377.586 425.251 390.125 430.194 390.134 436.317C390.144 442.44 377.621 447.423 362.163 447.447C346.706 447.472 334.167 442.528 334.158 436.405Z" fill="#181818" />
        <path opacity="0.34" d="M336.182 436.402C336.173 430.723 347.79 426.101 362.13 426.079C376.47 426.056 388.102 430.642 388.111 436.321C388.12 442 376.502 446.622 362.162 446.644C347.822 446.667 336.19 442.081 336.182 436.402Z" fill="#181818" />
    </g>
    <path d="M63.9206 99.0874C68.986 72.1258 99.0674 49.7461 99.0674 49.7461L141.027 56.833C141.027 56.833 117.572 71.8495 105.339 96.5639L63.9206 99.0874Z" fill="url(#paint0_linear_3634_3204)" />
    <path d="M93.4401 61.2859L124.152 65.596C124.486 65.6444 125.055 65.3796 125.414 65.0089C125.776 64.6405 125.796 64.2975 125.462 64.2514L94.7502 59.9412C94.4141 59.8929 93.8477 60.1577 93.4862 60.5284C93.127 60.8991 93.1063 61.2444 93.4401 61.2859Z" fill="#D1D1D1" />
    <path d="M90.5437 65.179L121.252 69.4915C121.585 69.5375 122.154 69.2727 122.516 68.902C122.875 68.5336 122.895 68.1929 122.562 68.1445L91.8493 63.8343C91.5154 63.7883 90.9467 64.0508 90.5852 64.4215C90.2306 64.7922 90.2099 65.1329 90.5437 65.179Z" fill="#D1D1D1" />
    <path d="M87.6357 69.0728L118.348 73.383C118.684 73.4291 119.253 73.1528 119.612 72.7959C119.971 72.4252 119.994 72.0845 119.658 72.0384L88.9458 67.7259C88.6119 67.6799 88.0432 67.9446 87.6841 68.313C87.3341 68.686 87.3134 69.0268 87.6357 69.0728Z" fill="#D1D1D1" />
    <path d="M84.7532 72.9685L115.465 77.2786C115.799 77.3247 116.368 77.0622 116.727 76.6915C117.089 76.3208 117.109 75.9801 116.775 75.934L86.0609 71.6239C85.7271 71.5755 85.1584 71.8403 84.7992 72.211C84.4377 72.5794 84.4124 72.9201 84.7532 72.9685Z" fill="#D1D1D1" />
    <path d="M81.8566 76.8617L112.569 81.1719C112.903 81.2202 113.471 80.9554 113.833 80.5847C114.192 80.2163 114.213 79.8733 113.879 79.8272L83.1667 75.5194C82.8306 75.471 82.2642 75.7358 81.9027 76.1065C81.5435 76.4749 81.5227 76.8156 81.8566 76.8617Z" fill="#D1D1D1" />
    <path d="M78.9603 80.7551L109.672 85.0676C110.009 85.1136 110.575 84.8374 110.936 84.4782C111.296 84.1098 111.316 83.769 110.982 83.7207L80.268 79.4105C79.9342 79.3645 79.3655 79.6269 79.004 79.9976C78.6563 80.3683 78.6264 80.7091 78.9603 80.7551Z" fill="#D1D1D1" />
    <path d="M76.0638 84.6508L106.778 88.9609C107.112 89.007 107.681 88.7307 108.04 88.3738C108.399 88.0031 108.422 87.6624 108.086 87.6163L77.3739 83.3039C77.04 83.2578 76.4713 83.5341 76.1122 83.891C75.7507 84.2686 75.73 84.6024 76.0638 84.6508Z" fill="#D1D1D1" />
    <path d="M26.4253 198.431C26.4253 261.836 70.8625 314.856 130.279 328.058C153.524 333.214 177.724 332.066 200.377 324.734C253.591 307.419 292.049 257.417 292.049 198.424C292.054 180.982 288.623 163.71 281.951 147.595C275.278 131.48 265.496 116.837 253.163 104.504C240.829 92.1706 226.186 82.3886 210.071 75.7166C193.956 69.0446 176.684 65.6134 159.242 65.6191C121.251 65.6191 86.9888 81.5682 62.797 107.123C52.0397 118.474 43.3707 131.635 37.1892 146C30.0662 162.561 26.4033 180.403 26.4253 198.431Z" fill="url(#paint1_linear_3634_3204)" stroke="#212529" stroke-width="5" stroke-miterlimit="10" />
    <path d="M159.237 99.0873C143.242 99.0873 130.275 92.8115 130.275 85.07C130.275 77.3285 143.242 71.0527 159.237 71.0527C175.233 71.0527 188.199 77.3285 188.199 85.07C188.199 92.8115 175.233 99.0873 159.237 99.0873Z" stroke="#212529" stroke-width="5" stroke-miterlimit="10" />
    <path d="M159.237 99.0869V331.24" stroke="#212529" stroke-width="5" stroke-miterlimit="10" />
    <path d="M186.164 90.2324C186.164 90.2324 259.451 99.2119 262.872 205.99C266.294 312.768 208.62 321.748 208.62 321.748" stroke="#212529" stroke-width="5" stroke-miterlimit="10" />
    <path d="M175.819 96.5635C175.819 96.5635 229.683 133.799 224.597 221.303C219.51 308.807 186.169 328.525 186.169 328.525" stroke="#212529" stroke-width="5" stroke-miterlimit="10" />
    <path d="M130.691 90.2324C130.691 90.2324 57.8352 99.2119 53.9809 205.99C50.5732 300.452 108.236 321.748 108.236 321.748" stroke="#212529" stroke-width="5" stroke-miterlimit="10" />
    <path d="M141.039 96.5635C141.039 96.5635 87.1753 133.799 92.2614 221.303C97.3475 308.807 130.691 328.525 130.691 328.525" stroke="#212529" stroke-width="5" stroke-miterlimit="10" />
    <path d="M26.4276 190.52C26.4276 224.692 85.8882 252.395 159.237 252.398C232.586 252.4 292.047 224.695 292.047 190.52" stroke="#212529" stroke-width="5" stroke-miterlimit="10" />
    <path d="M35.8792 149.129C35.8792 171.665 94.5915 201.286 161.411 201.286C228.23 201.286 282.828 172.248 282.828 149.711" stroke="#212529" stroke-width="5" stroke-miterlimit="10" />
    <path d="M38.1979 253.173C43.3346 269.357 94.1357 293.395 159.613 293.395C225.089 293.395 270.36 275.74 280.058 252.591" stroke="#212529" stroke-width="5" stroke-miterlimit="10" />
    <path d="M74.1297 96.4717C71.2954 100.057 69.755 103.886 69.755 107.86C69.755 128.186 109.818 144.662 159.23 144.662C208.643 144.662 248.706 128.186 248.706 107.86C248.706 104.049 247.296 100.374 244.681 96.916" stroke="#212529" stroke-width="5" stroke-miterlimit="10" />
    <path d="M159.237 71.0506V65.6191" stroke="#212529" stroke-width="5" stroke-miterlimit="10" />
    <path d="M183.077 77.11C202.417 70.9809 221.244 80.9597 221.244 80.9597" stroke="#212529" stroke-width="5" stroke-miterlimit="10" />
    <path d="M134.182 78.0519C134.182 78.0519 120.503 71.8077 99.0789 80.0067" stroke="#212529" stroke-width="5" stroke-miterlimit="10" />
    <path opacity="0.34" d="M26.4254 198.431C26.4254 261.835 70.8625 314.856 130.279 328.058C130.522 327.452 130.661 326.81 130.689 326.158C130.689 323.798 136.201 316.389 136.201 316.389L146.279 309.461L153.843 303.475L152.272 296.547L154.163 288.983C154.163 288.983 159.242 287.719 161.408 286.775C163.575 285.831 168.972 285.196 168.972 285.196C168.972 285.196 170.551 281.417 170.551 280.464C170.551 279.511 173.383 271.024 173.383 271.024L175.819 265.973L172.442 262.01L168.348 257.771C168.348 257.771 163.934 260.933 162.046 261.877C160.158 262.821 156.997 258.409 156.997 258.409L152.592 256.519L145.337 254.313L141.036 252.589L143.449 249.264V229.414L139.353 226.882L132.734 226.256L130.691 218.69L132.734 212.533L130.691 205.985L119.179 201.274C119.179 201.274 117.609 194.109 116.49 190.508C115.371 186.907 116.49 185.592 116.49 185.592C116.49 185.592 106.256 175.821 103.744 177.073C101.232 178.326 98.3859 180.861 98.3859 180.861L103.424 186.847L105.956 190.501L107.527 198.414C107.527 198.414 108.471 199.142 109.732 201.267C110.994 203.392 111.62 208.276 111.62 209.22C111.62 210.164 109.424 211.119 109.424 211.119L105.639 212.526C105.639 212.526 101.225 215.533 100.281 217.103C99.3368 218.674 100.281 223.09 100.281 223.09L96.5048 224.978C96.5048 224.978 91.4532 229.074 91.9368 230.018C92.4203 230.962 86.7333 234.114 86.7333 234.114L78.2142 232.541H73.4942L67.5079 224.66L65.6198 221.437H61.5261L60.5821 215.135C60.5821 215.135 64.9936 206.699 65.9376 205.971C66.8816 205.243 67.5079 201.26 67.5079 201.26L64.3581 194.404L61.5261 190.489L55.4707 186.753L49.5488 184.63C49.5488 184.63 49.8665 180.216 49.8665 179.272C49.8665 178.328 48.9226 175.176 48.9226 175.176L48.6048 172.026L53.859 169.818L51.1076 164.163V154.092L47.0023 155.345L43.8526 153.137V147.473L41.0505 146.004H37.1801C30.0609 162.564 26.401 180.405 26.4254 198.431Z" fill="#212529" />
    <path opacity="0.34" d="M62.7972 107.128L77.618 114.293C77.618 114.293 81.2098 114.189 83.2636 114.293C85.3174 114.397 92.2639 115.4 92.2639 115.4L99.079 123.949L101.121 129.102C101.121 129.102 112 130.643 116.486 129.102C120.971 127.562 126.368 132.326 126.368 132.326L121.749 135.128L116.486 144.068L110.46 150.285L106.868 169.579L112 175.216C112 175.216 121.238 173.728 123.803 171.594C126.368 169.459 130.279 171.594 130.279 171.594L134.177 171.193H136.632L145.356 171.594L151.513 175.216L162.29 187.879L171.014 202.813C171.014 202.813 175.027 200.883 175.817 198.438C176.607 195.993 188.204 188.554 188.204 188.554C188.204 188.554 193.592 186.039 195.646 187.886C197.7 189.732 201.289 187.066 202.162 187.886C203.034 188.706 208.988 188.236 208.988 188.236L216.172 187.886H223.623L220.123 175.644C220.123 175.644 214.118 174.237 210.526 169.402C206.935 164.567 211.04 166.047 211.04 166.047L215.997 154.943L210.526 153.043L208.988 150.292C208.988 150.292 202.521 140.071 202.162 140.161C201.803 140.251 202.162 132.333 202.162 132.333C202.162 132.333 205.569 131.902 210.526 129.109C215.484 126.316 214.118 129.079 215.659 129.109C217.199 129.139 220.277 122.407 221.242 118.794C222.207 115.182 226.947 114.3 226.947 114.3L235.671 112.884L234.645 104.211L238.236 99.0991H231.403L224.587 92.1619L231.403 86.9261C209.921 72.9828 184.852 65.5805 159.242 65.6193C121.252 65.6193 86.989 81.5729 62.7972 107.128Z" fill="#212529" />
    <path opacity="0.34" d="M193.737 232.371C194.577 236.598 196.691 236.179 196.693 239.133C196.696 242.087 206.824 252.589 206.824 252.589L208.938 264.916L205.981 275.065C205.981 275.065 200.665 279.716 200.368 281.409C200.071 283.101 197.278 281.429 200.368 284.795C202.259 286.849 204.445 288.61 206.854 290.02C206.854 290.02 205.129 291.549 203.446 295.776C201.763 300.003 198.798 301.84 198.381 304.725C198.116 306.556 197.973 308.402 197.95 310.251L200.373 315.413C200.373 315.413 199.829 318.204 200.373 324.743C253.587 307.428 292.044 257.426 292.044 198.433C292.076 177.586 287.177 157.026 277.746 138.434L277.725 138.413L269.803 144.664H263.017L254.593 149.129C254.593 149.129 253.32 153.881 251.206 155.932C249.092 157.984 249.164 161.578 248.712 161.688C248.261 161.799 255.85 175.215 255.85 175.215L251.201 187.584L248.708 193.927L257.556 202.812V205.994L262.964 209.545C262.964 209.545 263.006 210.889 263.006 212.538C263.006 214.186 261.364 224.741 261.364 224.741C261.364 224.741 260.943 225.593 259.248 226.866C257.554 228.139 253.326 228.561 253.326 228.561H226.284C226.284 228.561 222.126 229.401 221.244 232.788C220.413 235.949 218.873 236.914 218.688 237.017C218.801 236.884 219.448 236.062 218.668 234.892C217.827 233.631 213.176 227.294 213.176 227.294L202.164 224.748L200.38 221.455C200.38 221.455 196.274 215.358 195.001 218.365L193.739 221.382C193.739 221.382 192.885 228.153 193.737 232.371Z" fill="#212529" />
    <g opacity="0.34">
        <path opacity="0.04" d="M136.609 102.966C136.582 86.2122 170.852 72.5771 213.152 72.5106C255.452 72.4442 289.764 85.9716 289.79 102.725C289.816 119.478 255.547 133.113 213.247 133.18C170.947 133.246 136.635 119.719 136.609 102.966Z" fill="#111111" />
        <path opacity="0.08" d="M138.633 102.963C138.607 86.6534 171.971 73.3794 213.153 73.3147C254.335 73.25 287.74 86.4191 287.766 102.729C287.792 119.038 254.428 132.312 213.246 132.377C172.064 132.442 138.658 119.273 138.633 102.963Z" fill="#111111" />
        <path opacity="0.12" d="M140.659 102.959C140.634 87.092 173.091 74.1782 213.154 74.1152C253.217 74.0523 285.715 86.8641 285.74 102.731C285.765 118.598 253.307 131.512 213.244 131.575C173.181 131.638 140.683 118.826 140.659 102.959Z" fill="#111111" />
        <path opacity="0.15" d="M142.682 102.956C142.658 87.5315 174.21 74.9779 213.155 74.9167C252.101 74.8555 283.692 87.31 283.716 102.735C283.74 118.159 252.189 130.713 213.243 130.774C174.298 130.835 142.707 118.381 142.682 102.956Z" fill="#212529" />
        <path opacity="0.19" d="M144.709 102.952C144.685 87.9717 175.33 75.7793 213.157 75.7199C250.983 75.6604 281.667 87.7566 281.69 102.737C281.714 117.718 251.068 129.91 213.242 129.97C175.416 130.029 144.732 117.933 144.709 102.952Z" fill="#212529" />
        <path opacity="0.23" d="M146.732 102.949C146.71 88.4113 176.449 76.5789 213.158 76.5213C249.867 76.4636 279.643 88.2025 279.666 102.741C279.689 117.279 249.949 129.111 213.241 129.169C176.532 129.227 146.755 117.488 146.732 102.949Z" fill="#212529" />
        <path opacity="0.27" d="M148.759 102.947C148.737 88.8508 177.57 77.3787 213.159 77.3228C248.749 77.2669 277.618 88.6484 277.64 102.744C277.662 116.84 248.829 128.312 213.239 128.368C177.65 128.424 148.781 117.042 148.759 102.947Z" fill="#212529" />
        <path opacity="0.31" d="M150.785 102.943C150.763 89.291 178.691 78.1801 213.163 78.1259C247.635 78.0718 275.597 89.0949 275.618 102.747C275.64 116.399 247.712 127.51 213.24 127.564C178.769 127.618 150.806 116.595 150.785 102.943Z" fill="#212529" />
        <path opacity="0.35" d="M152.809 102.94C152.788 89.7306 179.809 78.9798 213.162 78.9274C246.514 78.875 273.569 89.5408 273.59 102.75C273.611 115.96 246.59 126.71 213.237 126.763C179.884 126.815 152.829 116.149 152.809 102.94Z" fill="#131313" />
        <path opacity="0.38" d="M154.833 102.937C154.813 90.1701 180.928 79.7795 213.163 79.7288C245.398 79.6782 271.546 89.9868 271.566 102.754C271.586 115.521 245.471 125.911 213.236 125.962C181.001 126.012 154.853 115.704 154.833 102.937Z" fill="#131313" />
        <path opacity="0.42" d="M156.861 102.933C156.842 90.6103 182.05 80.5808 213.166 80.5319C244.283 80.4831 269.523 90.4333 269.542 102.756C269.561 115.08 244.353 125.109 213.237 125.158C182.121 125.207 156.88 115.257 156.861 102.933Z" fill="#131313" />
        <path opacity="0.46" d="M158.885 102.93C158.866 91.0499 183.168 81.3805 213.165 81.3334C243.163 81.2863 267.495 90.8792 267.514 102.76C267.532 114.64 243.23 124.31 213.233 124.357C183.236 124.404 158.903 114.811 158.885 102.93Z" fill="#141414" />
        <path opacity="0.5" d="M160.911 102.927C160.893 91.4894 184.29 82.1803 213.169 82.1349C242.049 82.0895 265.474 91.3252 265.492 102.763C265.51 114.201 242.114 123.51 213.234 123.556C184.355 123.601 160.929 114.366 160.911 102.927Z" fill="#141414" />
        <path opacity="0.54" d="M162.937 102.924C162.92 91.9296 185.41 82.9816 213.17 82.938C240.931 82.8944 263.449 91.7717 263.466 102.766C263.484 113.76 240.993 122.708 213.233 122.752C185.473 122.795 162.954 113.918 162.937 102.924Z" fill="#151515" />
        <path opacity="0.58" d="M164.961 102.921C164.944 92.3691 186.529 83.7813 213.171 83.7395C239.814 83.6976 261.426 92.2176 261.442 102.769C261.459 113.321 239.874 121.909 213.231 121.951C186.589 121.993 164.977 113.473 164.961 102.921Z" fill="#151515" />
        <path opacity="0.62" d="M166.987 102.918C166.971 92.8087 187.649 84.581 213.173 84.5409C238.696 84.5008 259.4 92.6635 259.416 102.773C259.432 112.882 238.754 121.11 213.23 121.15C187.707 121.19 167.003 113.027 166.987 102.918Z" fill="#151515" />
        <path opacity="0.65" d="M169.011 102.914C168.996 93.2489 188.768 85.3824 213.174 85.3441C237.58 85.3058 257.377 93.1101 257.392 102.776C257.408 112.441 237.635 120.307 213.229 120.346C188.823 120.384 169.026 112.58 169.011 102.914Z" fill="#161616" />
        <path opacity="0.69" d="M171.037 102.911C171.022 93.6885 189.888 86.1821 213.175 86.1456C236.462 86.109 255.352 93.556 255.366 102.779C255.381 112.002 236.515 119.508 213.228 119.545C189.941 119.581 171.051 112.134 171.037 102.911Z" fill="#161616" />
        <path opacity="0.73" d="M173.061 102.908C173.047 94.128 191.007 86.9818 213.177 86.947C235.346 86.9122 253.328 94.0019 253.342 102.782C253.356 111.563 235.396 118.709 213.226 118.744C191.057 118.779 173.075 111.689 173.061 102.908Z" fill="#161616" />
        <path opacity="0.77" d="M175.087 102.905C175.074 94.5682 192.128 87.7832 213.178 87.7502C234.228 87.7171 251.303 94.4485 251.316 102.785C251.329 111.122 234.275 117.907 213.225 117.94C192.175 117.973 175.1 111.241 175.087 102.905Z" fill="#161616" />
        <path opacity="0.81" d="M177.111 102.902C177.098 95.0078 193.247 88.583 213.179 88.5516C233.111 88.5203 249.28 94.8944 249.292 102.789C249.305 110.683 233.156 117.107 213.224 117.139C193.292 117.17 177.123 110.796 177.111 102.902Z" fill="#161616" />
        <path opacity="0.85" d="M179.137 102.897C179.125 95.4454 194.367 89.3807 213.181 89.3512C231.994 89.3216 247.255 95.3384 247.266 102.79C247.278 110.242 232.036 116.306 213.223 116.336C194.41 116.365 179.149 110.349 179.137 102.897Z" fill="#171717" />
        <path opacity="0.88" d="M181.161 102.893C181.15 95.8856 195.486 90.1821 213.182 90.1543C230.877 90.1265 245.231 95.7849 245.242 102.793C245.253 109.801 230.917 115.504 213.221 115.532C195.526 115.56 181.172 109.901 181.161 102.893Z" fill="#171717" />
        <path opacity="0.92" d="M183.187 102.89C183.177 96.3251 196.606 90.9818 213.183 90.9558C229.76 90.9297 243.206 96.2308 243.216 102.796C243.227 109.361 229.797 114.705 213.22 114.731C196.644 114.757 183.197 109.456 183.187 102.89Z" fill="#171717" />
        <path opacity="0.96" d="M185.213 102.887C185.204 96.7647 197.727 91.7815 213.184 91.7572C228.642 91.7329 241.18 96.6767 241.19 102.799C241.2 108.922 228.677 113.905 213.219 113.93C197.761 113.954 185.223 109.01 185.213 102.887Z" fill="#181818" />
        <path opacity="0.34" d="M187.237 102.884C187.228 97.2048 198.846 92.5828 213.186 92.5603C227.525 92.5378 239.157 97.1233 239.166 102.802C239.175 108.481 227.558 113.103 213.218 113.126C198.878 113.148 187.246 108.563 187.237 102.884Z" fill="#181818" />
    </g>
    <g opacity="0.34">
        <path opacity="0.04" d="M195.774 161.329C195.744 146.79 214.718 134.963 238.155 134.914C261.592 134.865 280.616 146.612 280.647 161.151C280.677 175.691 261.703 187.517 238.266 187.566C214.829 187.616 195.805 175.869 195.774 161.329Z" fill="#111111" />
        <path opacity="0.08" d="M196.896 161.327C196.866 147.173 215.339 135.66 238.157 135.612C260.974 135.564 279.496 147 279.525 161.154C279.555 175.308 261.082 186.821 238.264 186.869C215.447 186.917 196.925 175.481 196.896 161.327Z" fill="#111111" />
        <path opacity="0.12" d="M198.019 161.325C197.99 147.555 215.961 136.354 238.158 136.308C260.355 136.261 278.373 147.387 278.402 161.157C278.43 174.927 260.46 186.128 238.263 186.174C216.066 186.221 198.048 175.095 198.019 161.325Z" fill="#111111" />
        <path opacity="0.15" d="M199.14 161.322C199.112 147.936 216.582 137.048 238.159 137.003C259.737 136.958 277.252 147.773 277.28 161.159C277.308 174.545 259.839 185.433 238.261 185.478C216.683 185.524 199.168 174.709 199.14 161.322Z" fill="#212529" />
        <path opacity="0.19" d="M200.262 161.32C200.234 148.319 217.203 137.744 238.161 137.7C259.12 137.657 276.132 148.16 276.159 161.161C276.186 174.162 259.218 184.737 238.26 184.781C217.301 184.825 200.289 174.321 200.262 161.32Z" fill="#212529" />
        <path opacity="0.23" d="M201.383 161.317C201.357 148.7 217.823 138.438 238.163 138.395C258.502 138.353 275.011 148.546 275.038 161.163C275.064 173.78 258.597 184.042 238.258 184.085C217.919 184.128 201.409 173.934 201.383 161.317Z" fill="#212529" />
        <path opacity="0.27" d="M203.357 160.82C203.357 148.587 219.342 138.671 239.061 138.671C258.779 138.671 274.765 148.587 274.765 160.82C274.765 173.053 258.779 182.97 239.061 182.97C219.342 182.97 203.357 173.053 203.357 160.82Z" fill="#212529" />
        <path opacity="0.31" d="M203.628 161.313C203.603 149.464 219.066 139.826 238.165 139.786C257.265 139.746 272.768 149.319 272.793 161.168C272.818 173.017 257.355 182.654 238.255 182.695C219.156 182.735 203.653 173.162 203.628 161.313Z" fill="#212529" />
        <path opacity="0.35" d="M204.749 161.31C204.725 149.847 219.687 140.523 238.167 140.484C256.647 140.445 271.648 149.707 271.672 161.17C271.696 172.634 256.734 181.958 238.254 181.997C219.774 182.036 204.773 172.774 204.749 161.31Z" fill="#131313" />
        <path opacity="0.38" d="M205.875 161.309C205.852 150.229 220.311 141.217 238.171 141.18C256.03 141.142 270.527 150.094 270.551 161.173C270.574 172.253 256.114 181.265 238.255 181.302C220.395 181.34 205.898 172.388 205.875 161.309Z" fill="#131313" />
        <path opacity="0.42" d="M206.996 161.306C206.974 150.611 220.932 141.911 238.172 141.875C255.413 141.839 269.407 150.48 269.429 161.175C269.452 171.871 255.494 180.57 238.253 180.606C221.013 180.643 207.019 172.001 206.996 161.306Z" fill="#131313" />
        <path opacity="0.46" d="M208.967 160.82C208.967 150.51 222.442 142.152 239.063 142.152C255.684 142.152 269.158 150.51 269.158 160.82C269.158 171.13 255.684 179.488 239.063 179.488C222.442 179.488 208.967 171.13 208.967 160.82Z" fill="#141414" />
        <path opacity="0.5" d="M209.241 161.301C209.22 151.375 222.174 143.301 238.175 143.267C254.176 143.234 267.163 151.253 267.184 161.18C267.205 171.106 254.251 179.18 238.25 179.213C222.25 179.247 209.262 171.227 209.241 161.301Z" fill="#141414" />
        <path opacity="0.54" d="M210.362 161.299C210.342 151.757 222.795 143.996 238.176 143.963C253.558 143.931 266.043 151.64 266.063 161.182C266.083 170.725 253.63 178.486 238.249 178.518C222.868 178.551 210.382 170.841 210.362 161.299Z" fill="#151515" />
        <path opacity="0.58" d="M211.484 161.297C211.465 152.14 223.416 144.692 238.178 144.661C252.94 144.63 264.923 152.028 264.942 161.185C264.961 170.342 253.01 177.79 238.248 177.821C223.486 177.852 211.503 170.454 211.484 161.297Z" fill="#151515" />
        <path opacity="0.62" d="M212.607 161.294C212.589 152.521 224.038 145.385 238.179 145.356C252.321 145.326 263.8 152.414 263.818 161.187C263.836 169.96 252.387 177.095 238.246 177.125C224.104 177.155 212.626 170.067 212.607 161.294Z" fill="#151515" />
        <path opacity="0.65" d="M213.728 161.292C213.711 152.904 224.659 146.08 238.181 146.052C251.703 146.023 262.679 152.801 262.697 161.19C262.714 169.578 251.767 176.402 238.244 176.43C224.722 176.459 213.746 169.681 213.728 161.292Z" fill="#161616" />
        <path opacity="0.69" d="M214.85 161.29C214.833 153.286 225.279 146.776 238.182 146.749C251.085 146.722 261.559 153.189 261.575 161.192C261.592 169.196 251.146 175.706 238.243 175.733C225.34 175.76 214.867 169.293 214.85 161.29Z" fill="#161616" />
        <path opacity="0.73" d="M215.973 161.285C215.958 153.666 225.901 147.468 238.184 147.443C250.466 147.417 260.436 153.573 260.452 161.192C260.468 168.812 250.524 175.009 238.242 175.035C225.959 175.061 215.989 168.905 215.973 161.285Z" fill="#161616" />
        <path opacity="0.77" d="M217.095 161.283C217.08 154.047 226.522 148.162 238.185 148.137C249.848 148.113 259.316 153.959 259.331 161.194C259.346 168.429 249.903 174.315 238.24 174.339C226.577 174.364 217.11 168.518 217.095 161.283Z" fill="#161616" />
        <path opacity="0.81" d="M218.218 161.28C218.204 154.428 227.145 148.856 238.189 148.832C249.233 148.809 258.197 154.345 258.212 161.196C258.226 168.047 249.285 173.62 238.241 173.643C227.197 173.667 218.233 168.131 218.218 161.28Z" fill="#161616" />
        <path opacity="0.85" d="M219.342 161.277C219.328 154.811 227.767 149.552 238.19 149.53C248.614 149.508 257.074 154.732 257.088 161.198C257.102 167.664 248.663 172.924 238.239 172.946C227.816 172.968 219.355 167.744 219.342 161.277Z" fill="#171717" />
        <path opacity="0.88" d="M220.463 161.276C220.451 155.194 228.388 150.246 238.192 150.226C247.996 150.205 255.954 155.119 255.967 161.201C255.98 167.283 248.042 172.231 238.238 172.251C228.434 172.272 220.476 167.358 220.463 161.276Z" fill="#171717" />
        <path opacity="0.92" d="M221.585 161.273C221.573 155.575 229.009 150.94 238.193 150.921C247.378 150.902 254.834 155.505 254.846 161.203C254.858 166.901 247.421 171.536 238.237 171.555C229.052 171.575 221.597 166.971 221.585 161.273Z" fill="#171717" />
        <path opacity="0.96" d="M222.71 161.271C222.699 155.958 229.633 151.636 238.197 151.618C246.761 151.601 253.713 155.893 253.724 161.206C253.735 166.518 246.802 170.84 238.237 170.858C229.673 170.876 222.721 166.583 222.71 161.271Z" fill="#181818" />
        <path opacity="0.34" d="M223.832 161.269C223.821 156.34 230.254 152.331 238.199 152.315C246.144 152.298 252.593 156.28 252.603 161.209C252.613 166.137 246.181 170.146 238.236 170.163C230.291 170.18 223.842 166.198 223.832 161.269Z" fill="#181818" />
    </g>
    <path d="M404.869 164.827L200.573 178.538C199.187 178.631 197.846 179.068 196.671 179.81C195.496 180.551 194.524 181.573 193.843 182.784C193.162 183.995 192.793 185.356 192.77 186.745C192.746 188.135 193.069 189.508 193.709 190.741L241.803 347.187C243.142 349.76 245.29 351.82 247.917 353.049C250.544 354.279 253.503 354.609 256.336 353.988L455.106 310.417C456.533 310.102 457.863 309.444 458.978 308.498C460.094 307.553 460.961 306.349 461.506 304.993C462.051 303.636 462.256 302.166 462.103 300.712C461.951 299.258 461.446 297.863 460.631 296.648L419.462 171.992C417.872 169.622 415.686 167.712 413.125 166.455C410.563 165.197 407.716 164.635 404.869 164.827Z" fill="url(#paint2_linear_3634_3204)" />
    <path d="M404.931 164.642L202.912 172.615C196.891 173.018 190.988 185.21 193.772 190.563L241.865 347.009C243.202 349.583 245.351 351.643 247.977 352.873C250.604 354.102 253.563 354.432 256.396 353.811L455.161 310.232C456.588 309.917 457.917 309.259 459.033 308.313C460.148 307.368 461.015 306.165 461.56 304.809C462.104 303.452 462.309 301.983 462.157 300.529C462.005 299.075 461.5 297.68 460.687 296.466L419.521 171.809C417.933 169.439 415.748 167.529 413.186 166.271C410.625 165.013 407.778 164.451 404.931 164.642Z" fill="url(#paint3_linear_3634_3204)" />
    <path d="M410.388 158.05L206.092 171.761C204.706 171.855 203.365 172.292 202.19 173.033C201.015 173.775 200.043 174.797 199.362 176.008C198.681 177.219 198.312 178.58 198.289 179.969C198.265 181.358 198.588 182.731 199.228 183.964L247.322 340.411C248.66 342.983 250.808 345.044 253.435 346.273C256.061 347.502 259.02 347.831 261.852 347.21L460.618 303.638C462.046 303.325 463.375 302.668 464.492 301.724C465.608 300.779 466.477 299.577 467.023 298.221C467.568 296.865 467.775 295.396 467.624 293.942C467.473 292.487 466.97 291.092 466.157 289.877L424.983 165.223C423.394 162.85 421.209 160.939 418.647 159.679C416.085 158.42 413.236 157.859 410.388 158.05Z" fill="url(#paint4_linear_3634_3204)" />
    <path d="M259.023 340.928C259.499 340.929 259.974 340.877 260.439 340.774L459.206 297.196C459.585 297.113 459.938 296.938 460.234 296.688C460.53 296.437 460.761 296.118 460.905 295.758C461.05 295.398 461.104 295.008 461.064 294.622C461.023 294.236 460.889 293.866 460.673 293.544L419.501 168.89C418.619 167.571 417.426 166.491 416.027 165.743C414.627 164.996 413.065 164.606 411.479 164.607C411.263 164.607 411.044 164.607 410.83 164.63L206.534 178.341C206.24 178.361 205.955 178.453 205.706 178.61C205.456 178.767 205.25 178.983 205.106 179.24C204.961 179.497 204.883 179.786 204.878 180.08C204.874 180.375 204.943 180.666 205.079 180.927L253.181 337.374C253.735 338.445 254.573 339.344 255.603 339.971C256.634 340.598 257.817 340.929 259.023 340.928Z" fill="url(#paint5_linear_3634_3204)" />
    <path d="M261.783 368.74L347.874 443.22C350.08 445.128 352.748 446.424 355.612 446.978C358.476 447.532 361.435 447.324 364.194 446.376L565.749 377.089C571.554 375.093 573.944 358.632 568.579 355.653L475.1 313.196C471.54 311.218 467.375 310.624 463.404 311.529L262.133 348.138C256.607 349.416 257.496 365.031 261.783 368.74Z" fill="url(#paint6_linear_3634_3204)" />
    <path d="M261.783 368.358L347.874 442.845C350.08 444.753 352.748 446.049 355.612 446.603C358.476 447.157 361.435 446.949 364.194 446.001L565.749 376.714C571.554 374.718 573.944 358.257 568.579 355.278L475.1 312.821C471.54 310.843 467.375 310.249 463.404 311.154L262.133 347.763C256.607 349.034 257.496 364.649 261.783 368.358Z" fill="url(#paint7_linear_3634_3204)" />
    <path d="M261.783 358.533L347.874 433.02C350.08 434.928 352.748 436.224 355.612 436.778C358.476 437.332 361.435 437.124 364.193 436.176L565.749 366.889C571.554 364.893 572.251 356.965 566.887 353.995L475.1 303.001C471.54 301.023 467.374 300.429 463.403 301.334L264.774 346.563C259.246 347.818 257.496 354.826 261.783 358.533Z" fill="url(#paint8_linear_3634_3204)" />
    <path d="M455.421 310.399L280.171 350.691C279.611 350.82 279.1 351.105 278.697 351.513C278.293 351.921 278.014 352.435 277.891 352.996C277.768 353.556 277.807 354.14 278.003 354.68C278.199 355.219 278.544 355.691 278.999 356.042L333.269 397.947C334.515 398.908 335.972 399.558 337.52 399.841C339.068 400.124 340.661 400.033 342.166 399.574L516.351 346.575C519.507 345.614 519.919 341.316 517.007 339.773L463.59 311.474C461.084 310.146 458.185 309.765 455.421 310.399Z" fill="url(#paint9_linear_3634_3204)" />
    <path d="M403.467 362.432L397.08 357.983L385.59 361.002L391.982 365.487L403.467 362.432Z" fill="url(#paint10_linear_3634_3204)" />
    <path d="M387.448 366.693L381.047 362.196L369.549 365.219L375.95 369.751L387.448 366.693Z" fill="url(#paint11_linear_3634_3204)" />
    <path d="M419.487 358.172L413.109 353.768L401.631 356.786L408.014 361.223L419.487 358.172Z" fill="url(#paint12_linear_3634_3204)" />
    <path d="M447.319 333.356L440.1 328.613L429.615 331.296L436.697 336.036L447.319 333.356Z" fill="url(#paint13_linear_3634_3204)" />
    <path d="M371.428 370.953L365.018 366.41L353.14 369.532L359.614 374.096L371.428 370.953Z" fill="url(#paint14_linear_3634_3204)" />
    <path d="M466.171 345.755L459.722 341.514L449.066 344.316L455.469 348.601L466.171 345.755Z" fill="url(#paint15_linear_3634_3204)" />
    <path d="M435.505 353.91L429.141 349.554L417.672 352.568L424.043 356.958L435.505 353.91Z" fill="url(#paint16_linear_3634_3204)" />
    <path d="M361.633 364.011L355.594 359.73L343.591 362.802L349.693 367.103L361.633 364.011Z" fill="url(#paint17_linear_3634_3204)" />
    <path d="M358.442 346.315L351.735 341.602L339.96 344.284L346.935 349.218L358.442 346.315Z" fill="url(#paint18_linear_3634_3204)" />
    <path d="M325.729 354.566L318.186 349.24L309.02 351.329L316.448 356.905L325.729 354.566Z" fill="url(#paint19_linear_3634_3204)" />
    <path d="M374.509 342.262L368.181 337.857L356.411 340.537L363.006 345.163L374.509 342.262Z" fill="url(#paint20_linear_3634_3204)" />
    <path d="M335.602 361.534L329.185 357.005L319.787 359.411L325.879 363.986L335.602 361.534Z" fill="url(#paint21_linear_3634_3204)" />
    <path d="M345.157 368.277L339.049 363.965L329.21 366.484L335.075 370.888L345.157 368.277Z" fill="url(#paint22_linear_3634_3204)" />
    <path d="M342.38 350.366L335.296 345.345L322.842 348.181L330.274 353.419L342.38 350.366Z" fill="url(#paint23_linear_3634_3204)" />
    <path d="M352.223 357.34L345.76 352.761L333.716 355.844L340.158 360.384L352.223 357.34Z" fill="url(#paint24_linear_3634_3204)" />
    <path d="M441.291 343.384L435.261 339.336L424.538 342.083L430.525 346.172L441.291 343.384Z" fill="url(#paint25_linear_3634_3204)" />
    <path d="M368.35 353.274L361.783 348.66L350.301 351.598L356.787 356.189L368.35 353.274Z" fill="url(#paint26_linear_3634_3204)" />
    <path d="M425.936 347.36L419.945 343.257L408.437 346.204L414.435 350.337L425.936 347.36Z" fill="url(#paint27_linear_3634_3204)" />
    <path d="M456.554 339.43L450.484 335.439L439.866 338.156L445.893 342.19L456.554 339.43Z" fill="url(#paint28_linear_3634_3204)" />
    <path d="M471.725 335.502L465.621 331.564L455.103 334.256L461.166 338.235L471.725 335.502Z" fill="url(#paint29_linear_3634_3204)" />
    <path d="M384.478 349.206L377.806 344.56L366.333 347.495L372.925 352.118L384.478 349.206Z" fill="url(#paint30_linear_3634_3204)" />
    <path d="M409.858 351.523L403.853 347.376L392.339 350.325L398.348 354.504L409.858 351.523Z" fill="url(#paint31_linear_3634_3204)" />
    <path d="M432.077 337.201L425.024 332.472L414.44 335.182L421.354 339.904L432.077 337.201Z" fill="url(#paint32_linear_3634_3204)" />
    <path d="M416.747 341.067L409.86 336.354L398.401 339.287L405.207 343.977L416.747 341.067Z" fill="url(#paint33_linear_3634_3204)" />
    <path d="M400.611 345.138L393.831 340.457L382.364 343.393L389.065 348.05L400.611 345.138Z" fill="url(#paint34_linear_3634_3204)" />
    <path d="M377.707 359.848L371.679 355.614L360.144 358.566L366.178 362.835L377.707 359.848Z" fill="url(#paint35_linear_3634_3204)" />
    <path d="M393.782 355.686L387.764 351.495L376.24 354.447L382.263 358.669L393.782 355.686Z" fill="url(#paint36_linear_3634_3204)" />
    <path d="M450.887 349.818L444.48 345.52L433.716 348.352L440.073 352.694L450.887 349.818Z" fill="url(#paint37_linear_3634_3204)" />
    <path d="M367.896 384.325L358.58 377.752L348.019 380.605L357.123 387.441L367.896 384.325Z" fill="url(#paint38_linear_3634_3204)" />
    <path d="M383.808 379.727L374.829 373.363L363.079 376.536L372.319 383.047L383.808 379.727Z" fill="url(#paint39_linear_3634_3204)" />
    <path d="M355.101 375.295L348.62 370.72L338.422 373.402L344.651 378.074L355.101 375.295Z" fill="url(#paint40_linear_3634_3204)" />
    <path d="M399.531 375.183L390.803 369.049L379.337 372.146L388.24 378.445L399.531 375.183Z" fill="url(#paint41_linear_3634_3204)" />
    <path d="M415.25 370.637L406.775 364.736L395.323 367.829L403.975 373.898L415.25 370.637Z" fill="url(#paint42_linear_3634_3204)" />
    <path d="M340.149 379.271L333.916 374.586L322.052 377.706L328.338 382.414L340.149 379.271Z" fill="url(#paint43_linear_3634_3204)" />
    <path d="M321.341 365.13L315.271 360.566L303.278 363.638L309.317 368.162L321.341 365.13Z" fill="url(#paint44_linear_3634_3204)" />
    <path d="M506.823 344.168L499.073 339.81L489.094 342.506L496.372 347.189L506.823 344.168Z" fill="url(#paint45_linear_3634_3204)" />
    <path d="M342.286 391.516C342.888 391.516 343.487 391.416 344.056 391.221L352.718 388.716L343.541 381.809L331.784 384.984L338.692 390.162L338.712 390.18C339.704 391.041 340.973 391.515 342.286 391.516Z" fill="url(#paint46_linear_3634_3204)" />
    <path d="M463.516 319.808L460.643 318.196C459.85 317.757 458.959 317.527 458.053 317.526C457.654 317.526 457.257 317.571 456.869 317.66L452.161 318.731L456.563 321.565L463.516 319.808Z" fill="url(#paint47_linear_3634_3204)" />
    <path d="M311.919 358.048L304.385 352.384L292.019 355.2L299.875 361.087L311.919 358.048Z" fill="url(#paint48_linear_3634_3204)" />
    <path d="M330.555 372.058L324.681 367.645L312.713 370.707L318.637 375.146L330.555 372.058Z" fill="url(#paint49_linear_3634_3204)" />
    <path d="M406.651 334.155L401.104 330.358L389.336 333.041L395.161 337.054L406.651 334.155Z" fill="url(#paint50_linear_3634_3204)" />
    <path d="M451.933 322.735L447.406 319.815L436.783 322.235L441.54 325.355L451.933 322.735Z" fill="url(#paint51_linear_3634_3204)" />
    <path d="M436.921 326.52L432.044 323.315L421.336 325.754L426.433 329.166L436.921 326.52Z" fill="url(#paint52_linear_3634_3204)" />
    <path d="M475.128 326.343L466.942 321.74L459.708 323.591L467.12 328.362L475.128 326.343Z" fill="url(#paint53_linear_3634_3204)" />
    <path d="M462.473 329.535L455.092 324.775L444.703 327.432L451.951 332.189L462.473 329.535Z" fill="url(#paint54_linear_3634_3204)" />
    <path d="M421.828 330.329L416.611 326.829L405.815 329.288L411.244 332.997L421.828 330.329Z" fill="url(#paint55_linear_3634_3204)" />
    <path d="M390.577 338.21L384.639 334.109L372.869 336.789L379.081 341.109L390.577 338.21Z" fill="url(#paint56_linear_3634_3204)" />
    <path d="M495.684 337.906L488.602 333.923L479.482 336.32L485.963 340.492L495.684 337.906Z" fill="url(#paint57_linear_3634_3204)" />
    <path d="M491.866 348.493L484.506 343.745L473.919 346.605L481.404 351.516L491.866 348.493Z" fill="url(#paint58_linear_3634_3204)" />
    <path d="M476.91 352.814L469.344 347.839L458.647 350.728L466.332 355.872L476.91 352.814Z" fill="url(#paint59_linear_3634_3204)" />
    <path d="M461.847 357.17L454.081 351.96L411.306 363.511L419.703 369.35L461.847 357.17Z" fill="url(#paint60_linear_3634_3204)" />
    <path d="M485.205 332.012L478.533 328.259L470.253 330.379L476.35 334.305L485.205 332.012Z" fill="url(#paint61_linear_3634_3204)" />
    <path d="M481.358 341.714L474.872 337.53L464.32 340.305L470.762 344.532L481.358 341.714Z" fill="url(#paint62_linear_3634_3204)" />
    <path d="M231.209 175.383L317.88 227.02L343.336 242.186L356.561 222.77L398.392 161.248C396.049 159.851 393.328 159.22 390.61 159.443L237.011 172.058C235.858 172.147 234.739 172.492 233.735 173.067C232.732 173.642 231.869 174.433 231.209 175.383Z" fill="url(#paint63_linear_3634_3204)" />
    <path d="M235.252 138.411C251.201 145.025 261.24 193.275 261.24 193.275L343.343 242.193L390.867 172.289C390.867 172.289 383.82 139.364 367.871 134.218L235.252 138.411Z" fill="url(#paint64_linear_3634_3204)" />
    <path d="M353.301 102.688C353.301 102.688 327.907 62.0659 282.616 56.8232L178.182 63.1204C218.062 72.3302 229.77 109.837 229.77 109.837L353.301 102.688Z" fill="url(#paint65_linear_3634_3204)" />
    <path d="M271.5 161.933L364.749 154.929C365.248 154.881 365.71 154.644 366.04 154.266C366.37 153.889 366.543 153.399 366.524 152.898C366.519 152.655 366.464 152.416 366.364 152.195C366.264 151.973 366.12 151.775 365.94 151.611C365.761 151.447 365.55 151.321 365.321 151.242C365.091 151.162 364.848 151.129 364.606 151.146L271.357 158.15C270.858 158.197 270.396 158.434 270.066 158.811C269.736 159.188 269.562 159.677 269.582 160.178C269.587 160.421 269.641 160.661 269.741 160.882C269.842 161.103 269.986 161.302 270.165 161.466C270.344 161.63 270.555 161.756 270.784 161.836C271.014 161.917 271.257 161.949 271.5 161.933Z" fill="#D1D1D1" />
    <path d="M274.292 172.39L367.541 165.388C368.04 165.34 368.502 165.102 368.832 164.725C369.162 164.348 369.335 163.858 369.316 163.357C369.311 163.114 369.257 162.875 369.157 162.654C369.057 162.432 368.912 162.233 368.733 162.069C368.554 161.905 368.343 161.779 368.114 161.699C367.884 161.619 367.641 161.586 367.399 161.603L274.15 168.607C273.651 168.655 273.189 168.892 272.859 169.27C272.529 169.647 272.356 170.137 272.374 170.638C272.379 170.88 272.434 171.12 272.534 171.341C272.634 171.562 272.779 171.761 272.958 171.925C273.137 172.089 273.348 172.214 273.577 172.294C273.807 172.374 274.05 172.407 274.292 172.39Z" fill="#D1D1D1" />
    <path d="M277.083 182.851L370.332 175.846C370.831 175.799 371.292 175.562 371.622 175.185C371.952 174.808 372.126 174.319 372.107 173.818C372.102 173.575 372.048 173.336 371.948 173.115C371.847 172.894 371.704 172.695 371.524 172.531C371.345 172.367 371.135 172.241 370.906 172.161C370.677 172.08 370.434 172.047 370.191 172.064L276.942 179.068C276.443 179.115 275.981 179.352 275.651 179.73C275.321 180.108 275.148 180.597 275.167 181.098C275.173 181.341 275.227 181.58 275.327 181.801C275.428 182.022 275.572 182.22 275.751 182.384C275.93 182.548 276.14 182.673 276.369 182.754C276.598 182.834 276.841 182.867 277.083 182.851Z" fill="#D1D1D1" />
    <path d="M279.874 193.31L373.123 186.306C373.621 186.259 374.083 186.022 374.413 185.645C374.743 185.268 374.917 184.779 374.898 184.278C374.893 184.035 374.839 183.796 374.738 183.575C374.638 183.354 374.494 183.155 374.315 182.991C374.136 182.827 373.926 182.701 373.697 182.621C373.467 182.54 373.224 182.507 372.982 182.524L279.733 189.528C279.234 189.576 278.773 189.813 278.443 190.191C278.114 190.568 277.941 191.058 277.96 191.558C277.965 191.801 278.019 192.04 278.119 192.261C278.219 192.482 278.363 192.681 278.542 192.844C278.72 193.008 278.931 193.134 279.16 193.214C279.389 193.294 279.632 193.327 279.874 193.31Z" fill="#D1D1D1" />
    <path d="M282.653 203.766L375.902 196.762C376.401 196.714 376.863 196.477 377.193 196.099C377.523 195.722 377.696 195.232 377.677 194.731C377.671 194.488 377.617 194.249 377.517 194.028C377.416 193.807 377.272 193.608 377.093 193.445C376.913 193.281 376.703 193.155 376.473 193.075C376.244 192.995 376.001 192.962 375.759 192.979L282.51 199.983C282.011 200.031 281.549 200.268 281.219 200.645C280.889 201.023 280.715 201.512 280.735 202.014C280.74 202.256 280.794 202.496 280.894 202.717C280.995 202.938 281.139 203.137 281.318 203.301C281.498 203.465 281.708 203.59 281.938 203.67C282.167 203.75 282.41 203.783 282.653 203.766Z" fill="#D1D1D1" />
    <path d="M285.455 214.23L378.704 207.226C379.203 207.178 379.665 206.941 379.995 206.563C380.325 206.186 380.498 205.696 380.479 205.195C380.473 204.952 380.419 204.713 380.318 204.492C380.218 204.271 380.074 204.072 379.895 203.908C379.715 203.745 379.505 203.619 379.275 203.539C379.046 203.459 378.803 203.426 378.561 203.443L285.312 210.447C284.813 210.495 284.351 210.732 284.021 211.109C283.69 211.487 283.517 211.976 283.537 212.477C283.542 212.72 283.597 212.959 283.697 213.18C283.797 213.402 283.942 213.6 284.121 213.764C284.3 213.928 284.511 214.053 284.74 214.133C284.969 214.213 285.212 214.246 285.455 214.23Z" fill="#D1D1D1" />
    <path d="M288.248 224.691L381.497 217.687C381.996 217.639 382.458 217.402 382.788 217.024C383.118 216.646 383.291 216.157 383.272 215.656C383.266 215.413 383.212 215.174 383.111 214.953C383.011 214.732 382.867 214.533 382.688 214.369C382.508 214.206 382.298 214.08 382.068 214C381.839 213.92 381.596 213.887 381.354 213.904L288.105 220.908C287.606 220.955 287.144 221.192 286.814 221.569C286.484 221.946 286.311 222.435 286.33 222.936C286.335 223.179 286.389 223.419 286.489 223.64C286.59 223.861 286.734 224.06 286.913 224.224C287.092 224.388 287.303 224.514 287.532 224.594C287.762 224.674 288.005 224.707 288.248 224.691Z" fill="#D1D1D1" />
    <path d="M230.157 182.353L266.305 292.769C267.24 295.625 269.149 298.061 271.697 299.652C274.246 301.243 277.273 301.888 280.249 301.475L428.022 280.944C429.284 280.768 430.492 280.321 431.564 279.633C432.635 278.944 433.545 278.031 434.229 276.957C434.913 275.882 435.355 274.672 435.526 273.41C435.696 272.147 435.59 270.863 435.215 269.646L404.178 168.656C403.226 165.552 401.153 162.914 398.362 161.256L356.561 222.77L343.352 242.194L317.88 227.021L231.202 175.377C230.494 176.377 230.031 177.529 229.849 178.741C229.668 179.952 229.773 181.19 230.157 182.353Z" fill="url(#paint66_linear_3634_3204)" />
    <path d="M271.799 299.694C274.33 301.252 277.326 301.879 280.27 301.467L428.043 280.936C429.496 280.735 430.877 280.173 432.057 279.301C433.238 278.429 434.181 277.275 434.8 275.944L356.552 222.758L331.418 205.681L317.88 227.02L271.799 299.694Z" fill="url(#paint67_linear_3634_3204)" />
    <path d="M214.88 72.9084L295.972 66.8184C296.406 66.7764 296.808 66.5701 297.094 66.2418C297.381 65.9135 297.532 65.488 297.515 65.0524C297.511 64.8412 297.464 64.633 297.377 64.4406C297.289 64.2481 297.164 64.0754 297.008 63.9328C296.852 63.7903 296.669 63.6809 296.47 63.6113C296.27 63.5418 296.059 63.5135 295.848 63.5282L214.758 69.6182C214.324 69.6601 213.922 69.8663 213.635 70.1946C213.348 70.5228 213.197 70.9483 213.213 71.3841C213.218 71.5953 213.265 71.8033 213.352 71.9956C213.44 72.1879 213.565 72.3605 213.721 72.503C213.876 72.6455 214.06 72.7549 214.259 72.8245C214.458 72.8942 214.67 72.9227 214.88 72.9084Z" fill="#D1D1D1" />
    <path d="M226.079 81.2615L307.169 75.1716C307.603 75.1301 308.005 74.924 308.292 74.5956C308.579 74.2672 308.729 73.8414 308.712 73.4056C308.707 73.1947 308.66 72.9869 308.573 72.7948C308.486 72.6026 308.361 72.4301 308.205 72.2876C308.05 72.1452 307.867 72.0357 307.668 71.9659C307.469 71.8961 307.258 71.8673 307.047 71.8814L225.955 77.9737C225.521 78.0151 225.12 78.2209 224.833 78.5488C224.546 78.8767 224.396 79.302 224.412 79.7373C224.417 79.9485 224.464 80.1567 224.551 80.3491C224.638 80.5416 224.763 80.7144 224.919 80.8569C225.075 80.9995 225.258 81.1088 225.458 81.1784C225.657 81.248 225.869 81.2762 226.079 81.2615Z" fill="#D1D1D1" />
    <path d="M231.663 89.7949L312.752 83.6934C313.186 83.6514 313.588 83.4452 313.875 83.1168C314.161 82.7885 314.312 82.363 314.295 81.9274C314.291 81.7162 314.244 81.508 314.157 81.3156C314.07 81.1231 313.944 80.9503 313.789 80.8078C313.633 80.6652 313.449 80.5559 313.25 80.4863C313.05 80.4168 312.839 80.3885 312.628 80.4032L231.538 86.4931C231.104 86.5351 230.703 86.7414 230.416 87.0697C230.129 87.398 229.979 87.8235 229.996 88.2591C229.998 88.4713 230.044 88.6807 230.131 88.8746C230.217 89.0684 230.342 89.2425 230.498 89.3863C230.654 89.5301 230.838 89.6405 231.038 89.7107C231.239 89.781 231.451 89.8096 231.663 89.7949Z" fill="#D1D1D1" />
    <path d="M122.755 45.8734C142.607 44.5265 165.631 54.5421 165.631 54.5421L246.064 38.2362C246.064 38.2362 209.806 24.1752 166.103 32.4433L122.755 45.8734Z" fill="url(#paint68_linear_3634_3204)" />
    <path d="M145.687 45.526L186.871 35.2272C187.091 35.1684 187.28 35.0274 187.399 34.8332C187.517 34.639 187.557 34.4066 187.509 34.1842C187.488 34.0759 187.445 33.9729 187.384 33.8816C187.322 33.7903 187.242 33.7125 187.149 33.6528C187.057 33.5932 186.953 33.553 186.844 33.5347C186.735 33.5164 186.624 33.5204 186.517 33.5464L145.328 43.8429C145.109 43.9021 144.92 44.0433 144.802 44.2373C144.683 44.4313 144.643 44.6635 144.691 44.8859C144.711 44.9949 144.754 45.0985 144.816 45.1905C144.878 45.2825 144.958 45.3608 145.051 45.4207C145.144 45.4806 145.249 45.5209 145.358 45.539C145.468 45.5571 145.58 45.5527 145.687 45.526Z" fill="#D1D1D1" />
    <path d="M156.439 47.5627L197.63 37.2662C197.85 37.2065 198.038 37.0652 198.156 36.8714C198.275 36.6775 198.315 36.4456 198.268 36.2232C198.247 36.1149 198.205 36.012 198.143 35.9207C198.081 35.8294 198.001 35.7515 197.908 35.6919C197.816 35.6323 197.712 35.5921 197.603 35.5738C197.494 35.5555 197.383 35.5595 197.276 35.5854L156.085 45.882C155.866 45.9417 155.677 46.083 155.559 46.2768C155.44 46.4707 155.4 46.7026 155.447 46.925C155.468 47.0333 155.511 47.1362 155.572 47.2275C155.634 47.3188 155.714 47.3967 155.807 47.4563C155.9 47.5159 156.003 47.5561 156.112 47.5744C156.221 47.5927 156.332 47.5887 156.439 47.5627Z" fill="#D1D1D1" />
    <path d="M166.071 50.3649L207.259 40.0615C207.479 40.0017 207.668 39.8602 207.787 39.6659C207.906 39.4716 207.946 39.2392 207.899 39.0162C207.879 38.9079 207.836 38.805 207.774 38.7137C207.712 38.6223 207.633 38.5445 207.54 38.4849C207.447 38.4252 207.343 38.3851 207.234 38.3668C207.126 38.3485 207.014 38.3524 206.907 38.3784L165.716 48.6749C165.497 48.7347 165.309 48.8759 165.19 49.0698C165.072 49.2637 165.032 49.4955 165.079 49.7179C165.098 49.8271 165.14 49.931 165.202 50.0234C165.263 50.1157 165.343 50.1946 165.435 50.2552C165.528 50.3157 165.633 50.3567 165.742 50.3756C165.851 50.3945 165.963 50.3908 166.071 50.3649Z" fill="#D1D1D1" />
    <path d="M337.725 317.253C339.39 317.241 341.052 317.08 342.689 316.774L502.306 286.936C507.707 285.926 512.321 282.951 514.969 278.774C517.617 274.598 517.997 269.67 516.024 265.259L515.745 264.635C512.588 257.571 504.532 252.863 495.7 252.922C494.427 252.93 493.157 253.035 491.901 253.238L331.57 278.975C325.448 279.958 320.093 283.156 316.876 287.747C313.66 292.338 312.891 297.878 314.767 302.959C317.949 311.579 327.175 317.322 337.725 317.253Z" fill="white" />
    <path d="M336.898 313.629C338.545 313.675 340.192 313.544 341.812 313.24L501.431 283.403C505.992 282.551 509.846 279.839 511.739 276.15C512.512 274.68 512.939 273.053 512.987 271.393C513.034 269.733 512.701 268.084 512.013 266.572L511.734 265.948C508.782 259.342 500.756 255.493 492.647 256.793L332.319 282.532C326.86 283.41 322.312 286.375 319.842 290.672C318.854 292.342 318.252 294.213 318.081 296.146C317.91 298.08 318.173 300.027 318.852 301.845C321.433 308.829 328.738 313.397 336.898 313.629ZM496.368 257.33C502.814 257.512 508.651 260.942 511.023 266.247L511.301 266.871C511.94 268.278 512.248 269.812 512.202 271.356C512.157 272.9 511.759 274.413 511.039 275.779C509.252 279.263 505.598 281.826 501.265 282.636L341.648 312.473C332.026 314.274 322.538 309.595 319.584 301.594C318.946 299.882 318.7 298.048 318.862 296.228C319.025 294.408 319.592 292.647 320.523 291.075C322.879 286.976 327.23 284.142 332.464 283.301L492.792 257.565C493.974 257.374 495.171 257.295 496.368 257.33Z" fill="#ACACAC" />
    <path d="M465.895 265.452L470.343 264.736L476.649 283.649L472.443 284.434L465.895 265.452Z" fill="url(#paint69_linear_3634_3204)" />
    <path d="M457.399 266.815L461.847 266.102L468.223 285.223L464.021 286.009L457.399 266.815Z" fill="url(#paint70_linear_3634_3204)" />
    <path d="M448.903 268.179L453.351 267.465L459.798 286.798L455.598 287.584L448.903 268.179Z" fill="url(#paint71_linear_3634_3204)" />
    <path d="M440.407 269.544L444.855 268.83L451.371 288.373L447.176 289.158L440.407 269.544Z" fill="url(#paint72_linear_3634_3204)" />
    <path d="M474.391 264.087L478.839 263.373L485.074 282.073L480.868 282.859L474.391 264.087Z" fill="url(#paint73_linear_3634_3204)" />
    <path d="M493.448 261.029C494.259 260.903 495.078 260.842 495.898 260.845L501.898 278.838C501.445 278.98 500.984 279.096 500.517 279.184L497.705 279.711L491.374 261.361L493.448 261.029Z" fill="url(#paint74_linear_3634_3204)" />
    <path d="M482.884 262.725L487.335 262.011L493.501 280.499L489.29 281.287L482.884 262.725Z" fill="url(#paint75_linear_3634_3204)" />
    <path d="M505.679 276.818L500.383 261.49C503.777 262.524 506.517 264.714 507.806 267.601L508.085 268.225C508.509 269.154 508.711 270.169 508.677 271.19C508.644 272.211 508.374 273.211 507.889 274.11C507.343 275.153 506.591 276.074 505.679 276.818Z" fill="url(#paint76_linear_3634_3204)" />
    <path d="M402.373 275.65L409.241 296.25L404.293 297.176L397.181 276.484L402.373 275.65Z" fill="url(#paint77_linear_3634_3204)" />
    <path d="M406.425 274.998L410.869 274.284L417.668 294.675L413.484 295.455L406.425 274.998Z" fill="url(#paint78_linear_3634_3204)" />
    <path d="M431.913 270.907L436.359 270.193L442.946 289.948L438.751 290.733L431.913 270.907Z" fill="url(#paint79_linear_3634_3204)" />
    <path d="M414.921 273.636L419.367 272.922L426.093 293.1L421.907 293.881L414.921 273.636Z" fill="url(#paint80_linear_3634_3204)" />
    <path d="M423.417 272.27L427.863 271.557L434.52 291.523L430.329 292.306L423.417 272.27Z" fill="url(#paint81_linear_3634_3204)" />
    <defs>
        <linearGradient id="paint0_linear_3634_3204" x1="101.13" y1="49.6471" x2="103.405" y2="97.1994" gradientUnits="userSpaceOnUse">
            <stop stop-color="#E6E6E6" />
            <stop offset="1" stop-color="#FAFAFA" />
        </linearGradient>
        <linearGradient id="paint1_linear_3634_3204" x1="292.049" y1="198.431" x2="26.4253" y2="198.431" gradientUnits="userSpaceOnUse">
            <stop stop-color="#D8D8D8" />
            <stop offset="1" stop-color="#838383" />
        </linearGradient>
        <linearGradient id="paint2_linear_3634_3204" x1="288.563" y1="222.335" x2="346.465" y2="273.937" gradientUnits="userSpaceOnUse">
            <stop stop-color="#303030" />
            <stop offset="1" stop-color="#727272" />
        </linearGradient>
        <linearGradient id="paint3_linear_3634_3204" x1="287.87" y1="221.478" x2="346.09" y2="273.363" gradientUnits="userSpaceOnUse">
            <stop stop-color="#303030" />
            <stop offset="0.51" stop-color="#676767" />
            <stop offset="0.82" stop-color="white" />
            <stop offset="1" stop-color="#727272" />
        </linearGradient>
        <linearGradient id="paint4_linear_3634_3204" x1="-280527" y1="153985" x2="-392032" y2="353939" gradientUnits="userSpaceOnUse">
            <stop stop-color="#303030" />
            <stop offset="1" stop-color="#727272" />
        </linearGradient>
        <linearGradient id="paint5_linear_3634_3204" x1="204.878" y1="164.607" x2="371.183" y2="399.771" gradientUnits="userSpaceOnUse">
            <stop offset="0.387135" stop-color="#868E96" />
            <stop offset="0.703423" stop-color="#495057" />
        </linearGradient>
        <linearGradient id="paint6_linear_3634_3204" x1="-474287" y1="247719" x2="-266713" y2="247719" gradientUnits="userSpaceOnUse">
            <stop stop-color="#303030" />
            <stop offset="1" stop-color="#727272" />
        </linearGradient>
        <linearGradient id="paint7_linear_3634_3204" x1="295.392" y1="378.823" x2="447.938" y2="378.823" gradientUnits="userSpaceOnUse">
            <stop stop-color="#C8C8C8" />
            <stop offset="0.71" stop-color="#EFEFEF" />
            <stop offset="1" stop-color="#F7F7F7" />
        </linearGradient>
        <linearGradient id="paint8_linear_3634_3204" x1="-228291" y1="189641" x2="-274580" y2="323079" gradientUnits="userSpaceOnUse">
            <stop stop-color="#C8C8C8" />
            <stop offset="0.71" stop-color="#EFEFEF" />
            <stop offset="1" stop-color="#F7F7F7" />
        </linearGradient>
        <linearGradient id="paint9_linear_3634_3204" x1="-352293" y1="173166" x2="-280668" y2="56852.6" gradientUnits="userSpaceOnUse">
            <stop stop-color="#303030" />
            <stop offset="1" stop-color="#727272" />
        </linearGradient>
        <linearGradient id="paint10_linear_3634_3204" x1="-22722.6" y1="14300" x2="-18038.6" y2="7544.35" gradientUnits="userSpaceOnUse">
            <stop stop-color="#C8C8C8" />
            <stop offset="0.71" stop-color="#EFEFEF" />
            <stop offset="1" stop-color="#F7F7F7" />
        </linearGradient>
        <linearGradient id="paint11_linear_3634_3204" x1="-22956.6" y1="14267.2" x2="-18231.8" y2="7489.96" gradientUnits="userSpaceOnUse">
            <stop stop-color="#C8C8C8" />
            <stop offset="0.71" stop-color="#EFEFEF" />
            <stop offset="1" stop-color="#F7F7F7" />
        </linearGradient>
        <linearGradient id="paint12_linear_3634_3204" x1="-22492.1" y1="14335.4" x2="-17846.9" y2="7600.13" gradientUnits="userSpaceOnUse">
            <stop stop-color="#C8C8C8" />
            <stop offset="0.71" stop-color="#EFEFEF" />
            <stop offset="1" stop-color="#F7F7F7" />
        </linearGradient>
        <linearGradient id="paint13_linear_3634_3204" x1="-22550.4" y1="14055" x2="-17918.5" y2="7367.16" gradientUnits="userSpaceOnUse">
            <stop stop-color="#C8C8C8" />
            <stop offset="0.71" stop-color="#EFEFEF" />
            <stop offset="1" stop-color="#F7F7F7" />
        </linearGradient>
        <linearGradient id="paint14_linear_3634_3204" x1="-23674.8" y1="14377.6" x2="-18875.4" y2="7463.46" gradientUnits="userSpaceOnUse">
            <stop stop-color="#C8C8C8" />
            <stop offset="0.71" stop-color="#EFEFEF" />
            <stop offset="1" stop-color="#F7F7F7" />
        </linearGradient>
        <linearGradient id="paint15_linear_3634_3204" x1="-20954" y1="13993.6" x2="-16550.6" y2="7559.39" gradientUnits="userSpaceOnUse">
            <stop stop-color="#C8C8C8" />
            <stop offset="0.71" stop-color="#EFEFEF" />
            <stop offset="1" stop-color="#F7F7F7" />
        </linearGradient>
        <linearGradient id="paint16_linear_3634_3204" x1="-22258.9" y1="14364.9" x2="-17654.4" y2="7651.58" gradientUnits="userSpaceOnUse">
            <stop stop-color="#C8C8C8" />
            <stop offset="0.71" stop-color="#EFEFEF" />
            <stop offset="1" stop-color="#F7F7F7" />
        </linearGradient>
        <linearGradient id="paint17_linear_3634_3204" x1="-23801.2" y1="13503" x2="-19243.7" y2="6750.76" gradientUnits="userSpaceOnUse">
            <stop stop-color="#C8C8C8" />
            <stop offset="0.71" stop-color="#EFEFEF" />
            <stop offset="1" stop-color="#F7F7F7" />
        </linearGradient>
        <linearGradient id="paint18_linear_3634_3204" x1="-25110.8" y1="13431.4" x2="-20387.5" y2="6492.8" gradientUnits="userSpaceOnUse">
            <stop stop-color="#C8C8C8" />
            <stop offset="0.71" stop-color="#EFEFEF" />
            <stop offset="1" stop-color="#F7F7F7" />
        </linearGradient>
        <linearGradient id="paint19_linear_3634_3204" x1="-23074" y1="13238.9" x2="-18155.4" y2="6747.64" gradientUnits="userSpaceOnUse">
            <stop stop-color="#C8C8C8" />
            <stop offset="0.71" stop-color="#EFEFEF" />
            <stop offset="1" stop-color="#F7F7F7" />
        </linearGradient>
        <linearGradient id="paint20_linear_3634_3204" x1="-24357.8" y1="13031.7" x2="-19862.5" y2="6289.93" gradientUnits="userSpaceOnUse">
            <stop stop-color="#C8C8C8" />
            <stop offset="0.71" stop-color="#EFEFEF" />
            <stop offset="1" stop-color="#F7F7F7" />
        </linearGradient>
        <linearGradient id="paint21_linear_3634_3204" x1="-21393.8" y1="12402.5" x2="-16963.6" y2="6326.08" gradientUnits="userSpaceOnUse">
            <stop stop-color="#C8C8C8" />
            <stop offset="0.71" stop-color="#EFEFEF" />
            <stop offset="1" stop-color="#F7F7F7" />
        </linearGradient>
        <linearGradient id="paint22_linear_3634_3204" x1="-21176.4" y1="12588.7" x2="-16805.1" y2="6493.47" gradientUnits="userSpaceOnUse">
            <stop stop-color="#C8C8C8" />
            <stop offset="0.71" stop-color="#EFEFEF" />
            <stop offset="1" stop-color="#F7F7F7" />
        </linearGradient>
        <linearGradient id="paint23_linear_3634_3204" x1="-26811.5" y1="14066.8" x2="-21798.9" y2="6723.89" gradientUnits="userSpaceOnUse">
            <stop stop-color="#C8C8C8" />
            <stop offset="0.71" stop-color="#EFEFEF" />
            <stop offset="1" stop-color="#F7F7F7" />
        </linearGradient>
        <linearGradient id="paint24_linear_3634_3204" x1="-24883.9" y1="13636.7" x2="-20157.1" y2="6689.78" gradientUnits="userSpaceOnUse">
            <stop stop-color="#C8C8C8" />
            <stop offset="0.71" stop-color="#EFEFEF" />
            <stop offset="1" stop-color="#F7F7F7" />
        </linearGradient>
        <linearGradient id="paint25_linear_3634_3204" x1="-21094.2" y1="13133.1" x2="-16870.5" y2="6866.67" gradientUnits="userSpaceOnUse">
            <stop stop-color="#C8C8C8" />
            <stop offset="0.71" stop-color="#EFEFEF" />
            <stop offset="1" stop-color="#F7F7F7" />
        </linearGradient>
        <linearGradient id="paint26_linear_3634_3204" x1="-24043.6" y1="13605.6" x2="-19354" y2="6799.69" gradientUnits="userSpaceOnUse">
            <stop stop-color="#C8C8C8" />
            <stop offset="0.71" stop-color="#EFEFEF" />
            <stop offset="1" stop-color="#F7F7F7" />
        </linearGradient>
        <linearGradient id="paint27_linear_3634_3204" x1="-22252.7" y1="13470.6" x2="-17892.3" y2="6946.11" gradientUnits="userSpaceOnUse">
            <stop stop-color="#C8C8C8" />
            <stop offset="0.71" stop-color="#EFEFEF" />
            <stop offset="1" stop-color="#F7F7F7" />
        </linearGradient>
        <linearGradient id="paint28_linear_3634_3204" x1="-20825.1" y1="13083.8" x2="-16667.8" y2="6862.04" gradientUnits="userSpaceOnUse">
            <stop stop-color="#C8C8C8" />
            <stop offset="0.71" stop-color="#EFEFEF" />
            <stop offset="1" stop-color="#F7F7F7" />
        </linearGradient>
        <linearGradient id="paint29_linear_3634_3204" x1="-20555.6" y1="13040" x2="-16460.5" y2="6862.18" gradientUnits="userSpaceOnUse">
            <stop stop-color="#C8C8C8" />
            <stop offset="0.71" stop-color="#EFEFEF" />
            <stop offset="1" stop-color="#F7F7F7" />
        </linearGradient>
        <linearGradient id="paint30_linear_3634_3204" x1="-23961.1" y1="13789.8" x2="-19255.3" y2="6950.78" gradientUnits="userSpaceOnUse">
            <stop stop-color="#C8C8C8" />
            <stop offset="0.71" stop-color="#EFEFEF" />
            <stop offset="1" stop-color="#F7F7F7" />
        </linearGradient>
        <linearGradient id="paint31_linear_3634_3204" x1="-22484.4" y1="13437.6" x2="-18084.7" y2="6891.43" gradientUnits="userSpaceOnUse">
            <stop stop-color="#C8C8C8" />
            <stop offset="0.71" stop-color="#EFEFEF" />
            <stop offset="1" stop-color="#F7F7F7" />
        </linearGradient>
        <linearGradient id="paint32_linear_3634_3204" x1="-22660.2" y1="13949.8" x2="-18014.3" y2="7275.54" gradientUnits="userSpaceOnUse">
            <stop stop-color="#C8C8C8" />
            <stop offset="0.71" stop-color="#EFEFEF" />
            <stop offset="1" stop-color="#F7F7F7" />
        </linearGradient>
        <linearGradient id="paint33_linear_3634_3204" x1="-23798.5" y1="14170.2" x2="-19056.8" y2="7261.91" gradientUnits="userSpaceOnUse">
            <stop stop-color="#C8C8C8" />
            <stop offset="0.71" stop-color="#EFEFEF" />
            <stop offset="1" stop-color="#F7F7F7" />
        </linearGradient>
        <linearGradient id="paint34_linear_3634_3204" x1="-23882.6" y1="13983.5" x2="-19156.9" y2="7108.79" gradientUnits="userSpaceOnUse">
            <stop stop-color="#C8C8C8" />
            <stop offset="0.71" stop-color="#EFEFEF" />
            <stop offset="1" stop-color="#F7F7F7" />
        </linearGradient>
        <linearGradient id="paint35_linear_3634_3204" x1="-22952" y1="13358.1" x2="-18478.3" y2="6770.16" gradientUnits="userSpaceOnUse">
            <stop stop-color="#C8C8C8" />
            <stop offset="0.71" stop-color="#EFEFEF" />
            <stop offset="1" stop-color="#F7F7F7" />
        </linearGradient>
        <linearGradient id="paint36_linear_3634_3204" x1="-22719.4" y1="13398.5" x2="-18282.9" y2="6831.17" gradientUnits="userSpaceOnUse">
            <stop stop-color="#C8C8C8" />
            <stop offset="0.71" stop-color="#EFEFEF" />
            <stop offset="1" stop-color="#F7F7F7" />
        </linearGradient>
        <linearGradient id="paint37_linear_3634_3204" x1="-21225.5" y1="14047.4" x2="-16754.1" y2="7568.56" gradientUnits="userSpaceOnUse">
            <stop stop-color="#C8C8C8" />
            <stop offset="0.71" stop-color="#EFEFEF" />
            <stop offset="1" stop-color="#F7F7F7" />
        </linearGradient>
        <linearGradient id="paint38_linear_3634_3204" x1="-25399.8" y1="18336.7" x2="-19090.6" y2="10500.3" gradientUnits="userSpaceOnUse">
            <stop stop-color="#C8C8C8" />
            <stop offset="0.71" stop-color="#EFEFEF" />
            <stop offset="1" stop-color="#F7F7F7" />
        </linearGradient>
        <linearGradient id="paint39_linear_3634_3204" x1="-26287.2" y1="18479" x2="-20043.1" y2="10387.4" gradientUnits="userSpaceOnUse">
            <stop stop-color="#C8C8C8" />
            <stop offset="0.71" stop-color="#EFEFEF" />
            <stop offset="1" stop-color="#F7F7F7" />
        </linearGradient>
        <linearGradient id="paint40_linear_3634_3204" x1="-21744.8" y1="13654" x2="-17079.3" y2="7248.03" gradientUnits="userSpaceOnUse">
            <stop stop-color="#C8C8C8" />
            <stop offset="0.71" stop-color="#EFEFEF" />
            <stop offset="1" stop-color="#F7F7F7" />
        </linearGradient>
        <linearGradient id="paint41_linear_3634_3204" x1="-25381.7" y1="18092.2" x2="-19329.4" y2="10217.3" gradientUnits="userSpaceOnUse">
            <stop stop-color="#C8C8C8" />
            <stop offset="0.71" stop-color="#EFEFEF" />
            <stop offset="1" stop-color="#F7F7F7" />
        </linearGradient>
        <linearGradient id="paint42_linear_3634_3204" x1="-24826.9" y1="17795.3" x2="-18944.3" y2="10048.9" gradientUnits="userSpaceOnUse">
            <stop stop-color="#C8C8C8" />
            <stop offset="0.71" stop-color="#EFEFEF" />
            <stop offset="1" stop-color="#F7F7F7" />
        </linearGradient>
        <linearGradient id="paint43_linear_3634_3204" x1="-23825" y1="14381.6" x2="-18888.4" y2="7472.64" gradientUnits="userSpaceOnUse">
            <stop stop-color="#C8C8C8" />
            <stop offset="0.71" stop-color="#EFEFEF" />
            <stop offset="1" stop-color="#F7F7F7" />
        </linearGradient>
        <linearGradient id="paint44_linear_3634_3204" x1="-24683.4" y1="13336.4" x2="-19938.8" y2="6505.82" gradientUnits="userSpaceOnUse">
            <stop stop-color="#C8C8C8" />
            <stop offset="0.71" stop-color="#EFEFEF" />
            <stop offset="1" stop-color="#F7F7F7" />
        </linearGradient>
        <linearGradient id="paint45_linear_3634_3204" x1="-20919.5" y1="15088.3" x2="-16326.9" y2="8408.34" gradientUnits="userSpaceOnUse">
            <stop stop-color="#C8C8C8" />
            <stop offset="0.71" stop-color="#EFEFEF" />
            <stop offset="1" stop-color="#F7F7F7" />
        </linearGradient>
        <linearGradient id="paint46_linear_3634_3204" x1="-27843.2" y1="18545.8" x2="-21596.1" y2="10389.7" gradientUnits="userSpaceOnUse">
            <stop stop-color="#C8C8C8" />
            <stop offset="0.71" stop-color="#EFEFEF" />
            <stop offset="1" stop-color="#F7F7F7" />
        </linearGradient>
        <linearGradient id="paint47_linear_3634_3204" x1="-14779" y1="7905.3" x2="-12427.7" y2="3902.69" gradientUnits="userSpaceOnUse">
            <stop stop-color="#C8C8C8" />
            <stop offset="0.71" stop-color="#EFEFEF" />
            <stop offset="1" stop-color="#F7F7F7" />
        </linearGradient>
        <linearGradient id="paint48_linear_3634_3204" x1="-27773.2" y1="14832.5" x2="-22265.6" y2="7208.47" gradientUnits="userSpaceOnUse">
            <stop stop-color="#C8C8C8" />
            <stop offset="0.71" stop-color="#EFEFEF" />
            <stop offset="1" stop-color="#F7F7F7" />
        </linearGradient>
        <linearGradient id="paint49_linear_3634_3204" x1="-23934" y1="13483.5" x2="-19248.7" y2="6737.01" gradientUnits="userSpaceOnUse">
            <stop stop-color="#C8C8C8" />
            <stop offset="0.71" stop-color="#EFEFEF" />
            <stop offset="1" stop-color="#F7F7F7" />
        </linearGradient>
        <linearGradient id="paint50_linear_3634_3204" x1="-22859.5" y1="12217.1" x2="-18810.2" y2="5877.63" gradientUnits="userSpaceOnUse">
            <stop stop-color="#C8C8C8" />
            <stop offset="0.71" stop-color="#EFEFEF" />
            <stop offset="1" stop-color="#F7F7F7" />
        </linearGradient>
        <linearGradient id="paint51_linear_3634_3204" x1="-19411.7" y1="10453.2" x2="-16143.4" y2="5041.97" gradientUnits="userSpaceOnUse">
            <stop stop-color="#C8C8C8" />
            <stop offset="0.71" stop-color="#EFEFEF" />
            <stop offset="1" stop-color="#F7F7F7" />
        </linearGradient>
        <linearGradient id="paint52_linear_3634_3204" x1="-20164.2" y1="10921.5" x2="-16671.1" y2="5287.94" gradientUnits="userSpaceOnUse">
            <stop stop-color="#C8C8C8" />
            <stop offset="0.71" stop-color="#EFEFEF" />
            <stop offset="1" stop-color="#F7F7F7" />
        </linearGradient>
        <linearGradient id="paint53_linear_3634_3204" x1="-19253.9" y1="12780.6" x2="-15088" y2="6907.8" gradientUnits="userSpaceOnUse">
            <stop stop-color="#C8C8C8" />
            <stop offset="0.71" stop-color="#EFEFEF" />
            <stop offset="1" stop-color="#F7F7F7" />
        </linearGradient>
        <linearGradient id="paint54_linear_3634_3204" x1="-22440.4" y1="14159.3" x2="-17822.3" y2="7458.07" gradientUnits="userSpaceOnUse">
            <stop stop-color="#C8C8C8" />
            <stop offset="0.71" stop-color="#EFEFEF" />
            <stop offset="1" stop-color="#F7F7F7" />
        </linearGradient>
        <linearGradient id="paint55_linear_3634_3204" x1="-20917.9" y1="11391" x2="-17193.6" y2="5537.46" gradientUnits="userSpaceOnUse">
            <stop stop-color="#C8C8C8" />
            <stop offset="0.71" stop-color="#EFEFEF" />
            <stop offset="1" stop-color="#F7F7F7" />
        </linearGradient>
        <linearGradient id="paint56_linear_3634_3204" x1="-23607.4" y1="12628.1" x2="-19335.8" y2="6085.72" gradientUnits="userSpaceOnUse">
            <stop stop-color="#C8C8C8" />
            <stop offset="0.71" stop-color="#EFEFEF" />
            <stop offset="1" stop-color="#F7F7F7" />
        </linearGradient>
        <linearGradient id="paint57_linear_3634_3204" x1="-19475.8" y1="13201.5" x2="-15426.9" y2="7155.67" gradientUnits="userSpaceOnUse">
            <stop stop-color="#C8C8C8" />
            <stop offset="0.71" stop-color="#EFEFEF" />
            <stop offset="1" stop-color="#F7F7F7" />
        </linearGradient>
        <linearGradient id="paint58_linear_3634_3204" x1="-21368.4" y1="15753.2" x2="-16466.8" y2="8899.44" gradientUnits="userSpaceOnUse">
            <stop stop-color="#C8C8C8" />
            <stop offset="0.71" stop-color="#EFEFEF" />
            <stop offset="1" stop-color="#F7F7F7" />
        </linearGradient>
        <linearGradient id="paint59_linear_3634_3204" x1="-21940.7" y1="16152" x2="-16848.2" y2="9142.87" gradientUnits="userSpaceOnUse">
            <stop stop-color="#C8C8C8" />
            <stop offset="0.71" stop-color="#EFEFEF" />
            <stop offset="1" stop-color="#F7F7F7" />
        </linearGradient>
        <linearGradient id="paint60_linear_3634_3204" x1="-62580.4" y1="33994.6" x2="-52620.8" y2="16471.3" gradientUnits="userSpaceOnUse">
            <stop stop-color="#C8C8C8" />
            <stop offset="0.71" stop-color="#EFEFEF" />
            <stop offset="1" stop-color="#F7F7F7" />
        </linearGradient>
        <linearGradient id="paint61_linear_3634_3204" x1="-18287.1" y1="11943.9" x2="-14564.1" y2="6370.06" gradientUnits="userSpaceOnUse">
            <stop stop-color="#C8C8C8" />
            <stop offset="0.71" stop-color="#EFEFEF" />
            <stop offset="1" stop-color="#F7F7F7" />
        </linearGradient>
        <linearGradient id="paint62_linear_3634_3204" x1="-20685" y1="13941.2" x2="-16347.5" y2="7551.19" gradientUnits="userSpaceOnUse">
            <stop stop-color="#C8C8C8" />
            <stop offset="0.71" stop-color="#EFEFEF" />
            <stop offset="1" stop-color="#F7F7F7" />
        </linearGradient>
        <linearGradient id="paint63_linear_3634_3204" x1="314.449" y1="164.638" x2="319.273" y2="216.081" gradientUnits="userSpaceOnUse">
            <stop stop-color="#D8D8D8" />
            <stop offset="1" stop-color="#9C9C9C" />
        </linearGradient>
        <linearGradient id="paint64_linear_3634_3204" x1="-224513" y1="77033.2" x2="-222985" y2="123051" gradientUnits="userSpaceOnUse">
            <stop stop-color="#E6E6E6" />
            <stop offset="1" stop-color="#FAFAFA" />
        </linearGradient>
        <linearGradient id="paint65_linear_3634_3204" x1="-288703" y1="21297.8" x2="-288552" y2="31776.5" gradientUnits="userSpaceOnUse">
            <stop stop-color="#E6E6E6" />
            <stop offset="1" stop-color="#FAFAFA" />
        </linearGradient>
        <linearGradient id="paint66_linear_3634_3204" x1="-281872" y1="137868" x2="-278512" y2="184931" gradientUnits="userSpaceOnUse">
            <stop stop-color="#D8D8D8" />
            <stop offset="1" stop-color="#9C9C9C" />
        </linearGradient>
        <linearGradient id="paint67_linear_3634_3204" x1="-208724" y1="98302.2" x2="-207737" y2="133345" gradientUnits="userSpaceOnUse">
            <stop stop-color="#D8D8D8" />
            <stop offset="1" stop-color="#9C9C9C" />
        </linearGradient>
        <linearGradient id="paint68_linear_3634_3204" x1="-246447" y1="7236.53" x2="-246425" y2="9510.25" gradientUnits="userSpaceOnUse">
            <stop stop-color="#E6E6E6" />
            <stop offset="1" stop-color="#FAFAFA" />
        </linearGradient>
        <linearGradient id="paint69_linear_3634_3204" x1="404.723" y1="281.937" x2="509.271" y2="266.992" gradientUnits="userSpaceOnUse">
            <stop stop-color="#A7A7A7" />
            <stop offset="1" stop-color="#C7C7C7" />
        </linearGradient>
        <linearGradient id="paint70_linear_3634_3204" x1="-10670.4" y1="31087.5" x2="-5664.1" y2="30696.7" gradientUnits="userSpaceOnUse">
            <stop stop-color="#A7A7A7" />
            <stop offset="1" stop-color="#C7C7C7" />
        </linearGradient>
        <linearGradient id="paint71_linear_3634_3204" x1="-10748.9" y1="31459.1" x2="-5709.35" y2="31067.3" gradientUnits="userSpaceOnUse">
            <stop stop-color="#A7A7A7" />
            <stop offset="1" stop-color="#C7C7C7" />
        </linearGradient>
        <linearGradient id="paint72_linear_3634_3204" x1="-10825.1" y1="31828.5" x2="-5753.34" y2="31435.7" gradientUnits="userSpaceOnUse">
            <stop stop-color="#A7A7A7" />
            <stop offset="1" stop-color="#C7C7C7" />
        </linearGradient>
        <linearGradient id="paint73_linear_3634_3204" x1="-10515.6" y1="30349.6" x2="-5574.59" y2="29960.7" gradientUnits="userSpaceOnUse">
            <stop stop-color="#A7A7A7" />
            <stop offset="1" stop-color="#C7C7C7" />
        </linearGradient>
        <linearGradient id="paint74_linear_3634_3204" x1="-10343.9" y1="28957.5" x2="-5489.06" y2="28569.6" gradientUnits="userSpaceOnUse">
            <stop stop-color="#A7A7A7" />
            <stop offset="1" stop-color="#C7C7C7" />
        </linearGradient>
        <linearGradient id="paint75_linear_3634_3204" x1="-10441.6" y1="29983.9" x2="-5531.86" y2="29595.6" gradientUnits="userSpaceOnUse">
            <stop stop-color="#A7A7A7" />
            <stop offset="1" stop-color="#C7C7C7" />
        </linearGradient>
        <linearGradient id="paint76_linear_3634_3204" x1="-8045.1" y1="23554.3" x2="-4215.59" y2="23257.3" gradientUnits="userSpaceOnUse">
            <stop stop-color="#A7A7A7" />
            <stop offset="1" stop-color="#C7C7C7" />
        </linearGradient>
        <linearGradient id="paint77_linear_3634_3204" x1="-11975.9" y1="33924.5" x2="-6399.75" y2="33475.9" gradientUnits="userSpaceOnUse">
            <stop stop-color="#A7A7A7" />
            <stop offset="1" stop-color="#C7C7C7" />
        </linearGradient>
        <linearGradient id="paint78_linear_3634_3204" x1="-11131.6" y1="33321.5" x2="-5930.04" y2="32924.9" gradientUnits="userSpaceOnUse">
            <stop stop-color="#A7A7A7" />
            <stop offset="1" stop-color="#C7C7C7" />
        </linearGradient>
        <linearGradient id="paint79_linear_3634_3204" x1="-10901.2" y1="32202.2" x2="-5797.2" y2="31808.6" gradientUnits="userSpaceOnUse">
            <stop stop-color="#A7A7A7" />
            <stop offset="1" stop-color="#C7C7C7" />
        </linearGradient>
        <linearGradient id="paint80_linear_3634_3204" x1="-11053.4" y1="32945" x2="-5884.92" y2="32549.6" gradientUnits="userSpaceOnUse">
            <stop stop-color="#A7A7A7" />
            <stop offset="1" stop-color="#C7C7C7" />
        </linearGradient>
        <linearGradient id="paint81_linear_3634_3204" x1="-10977.2" y1="32573.1" x2="-5841.1" y2="32178.5" gradientUnits="userSpaceOnUse">
            <stop stop-color="#A7A7A7" />
            <stop offset="1" stop-color="#C7C7C7" />
        </linearGradient>
    </defs>
</svg>