<svg width="40" height="40" viewBox="0 0 40 40" fill="none" xmlns="http://www.w3.org/2000/svg">
    <path d="M13.3326 23.9256C11.8643 23.9256 10.666 25.1231 10.666 26.5172C10.666 27.9114 11.8643 29.1088 13.3326 29.1088C14.8009 29.1088 15.9992 27.9114 15.9992 26.5172C15.9992 25.1231 14.7993 23.9256 13.3326 23.9256ZM15.9992 10.6675C14.5309 10.6675 13.3326 11.865 13.3326 13.2592C13.3326 14.6533 14.5309 15.8508 15.9992 15.8508C17.4675 15.8508 18.6659 14.6533 18.6659 13.2592C18.6659 11.865 17.4659 10.6675 15.9992 10.6675ZM29.3323 21.259C27.864 21.259 26.6657 22.4565 26.6657 23.8506C26.6657 25.2447 27.864 26.4422 29.3323 26.4422C30.8006 26.4422 31.9989 25.2447 31.9989 23.8506C31.9989 22.4565 30.7989 21.259 29.3323 21.259Z" fill="#090A0B" />
    <path opacity="0.4" d="M39.882 19.9922C34.413 19.9239 29.9989 15.4806 29.9989 10.0008C24.5207 10.0008 20.0741 5.58668 20.0158 0.117626C17.8775 -0.204618 15.6992 0.137175 13.7851 1.12344L8.39102 3.86838C6.44522 4.8642 4.86276 6.44666 3.86694 8.39246L1.13283 13.7673C0.13702 15.7206 -0.21464 17.9273 0.12702 20.0956L1.0745 26.0521C1.41633 28.2104 2.43197 30.202 3.97527 31.7453L8.25519 36.0277C9.79932 37.5752 11.7743 38.5835 13.9326 38.9252L19.9191 39.8727C22.0774 40.2144 24.2749 39.8629 26.2182 38.8768L31.6189 36.1227C33.5622 35.1361 35.1446 33.5544 36.1304 31.6112L38.8746 26.2304C39.857 24.3088 40.207 22.1172 39.882 19.9922ZM13.3326 29.2587C11.8643 29.2587 10.666 28.0612 10.666 26.6671C10.666 25.2729 11.8643 24.0755 13.3326 24.0755C14.8009 24.0755 15.9992 25.2729 15.9992 26.6671C15.9992 28.0612 14.7992 29.2587 13.3326 29.2587ZM15.9992 16.0006C14.5309 16.0006 13.3326 14.8032 13.3326 13.409C13.3326 12.0149 14.5309 10.8174 15.9992 10.8174C17.4675 10.8174 18.6658 12.0149 18.6658 13.409C18.6658 14.8032 17.4658 16.0006 15.9992 16.0006ZM29.3323 26.5921C27.864 26.5921 26.6656 25.3946 26.6656 24.0005C26.6656 22.6063 27.864 21.4089 29.3323 21.4089C30.8006 21.4089 31.9989 22.6063 31.9989 24.0005C31.9989 25.3946 30.7989 26.5921 29.3323 26.5921Z" fill="#090A0B" />
</svg>
    