<svg width="40" height="40" viewBox="0 0 40 40" fill="none" xmlns="http://www.w3.org/2000/svg">
    <path d="M20.0322 15C19.0369 15 18.064 15.2918 17.2365 15.8384C16.4089 16.3851 15.7639 17.1621 15.3831 18.0711C15.0022 18.9802 14.9025 19.9805 15.0967 20.9456C15.2909 21.9106 15.7701 22.7971 16.4739 23.4929C17.1777 24.1886 18.0743 24.6624 19.0505 24.8544C20.0266 25.0464 21.0384 24.9478 21.9579 24.5713C22.8774 24.1948 23.6634 23.5571 24.2163 22.739C24.7692 21.9208 25.0644 20.959 25.0644 19.975C25.0644 18.6555 24.5342 17.3901 23.5905 16.4571C22.6468 15.5242 21.3668 15 20.0322 15Z" fill="#6C757D"></path>
    <path d="M20.0322 1.66666C19.0369 1.66666 18.064 1.95844 17.2365 2.5051C16.4089 3.05176 15.7639 3.82875 15.3831 4.73781C15.0022 5.64688 14.9025 6.64718 15.0967 7.61224C15.2909 8.57729 15.7701 9.46375 16.4739 10.1595C17.1777 10.8553 18.0743 11.3291 19.0505 11.5211C20.0266 11.713 21.0384 11.6145 21.9579 11.238C22.8774 10.8614 23.6634 10.2238 24.2163 9.40562C24.7692 8.58749 25.0644 7.62562 25.0644 6.64166C25.0644 5.32221 24.5342 4.0568 23.5905 3.12381C22.6468 2.19081 21.3668 1.66666 20.0322 1.66666Z" fill="#6C757D"></path>
    <path d="M20.0322 28.3333C19.0369 28.3333 18.064 28.6251 17.2365 29.1718C16.4089 29.7184 15.7639 30.4954 15.3831 31.4045C15.0022 32.3135 14.9025 33.3138 15.0967 34.2789C15.2909 35.244 15.7701 36.1304 16.4739 36.8262C17.1777 37.5219 18.0743 37.9958 19.0505 38.1877C20.0266 38.3797 21.0384 38.2812 21.9579 37.9046C22.8774 37.5281 23.6634 36.8904 24.2163 36.0723C24.7692 35.2542 25.0644 34.2923 25.0644 33.3083C25.0644 31.9889 24.5342 30.7235 23.5905 29.7905C22.6468 28.8575 21.3668 28.3333 20.0322 28.3333Z" fill="#6C757D"></path>
    <path d="M33.3656 15C32.3703 15 31.3974 15.2918 30.5698 15.8384C29.7423 16.3851 29.0973 17.1621 28.7164 18.0711C28.3356 18.9802 28.2359 19.9805 28.4301 20.9456C28.6242 21.9106 29.1035 22.7971 29.8073 23.4929C30.511 24.1886 31.4077 24.6624 32.3838 24.8544C33.36 25.0464 34.3718 24.9478 35.2913 24.5713C36.2108 24.1948 36.9967 23.5571 37.5497 22.739C38.1026 21.9208 38.3977 20.959 38.3977 19.975C38.3977 18.6555 37.8676 17.3901 36.9239 16.4571C35.9801 15.5242 34.7002 15 33.3656 15Z" fill="#6C757D"></path>
    <path d="M33.3656 1.66666C32.3703 1.66666 31.3974 1.95844 30.5698 2.5051C29.7423 3.05176 29.0973 3.82875 28.7164 4.73781C28.3356 5.64688 28.2359 6.64718 28.4301 7.61224C28.6242 8.57729 29.1035 9.46375 29.8073 10.1595C30.511 10.8553 31.4077 11.3291 32.3838 11.5211C33.36 11.713 34.3718 11.6145 35.2913 11.238C36.2108 10.8614 36.9967 10.2238 37.5497 9.40562C38.1026 8.58749 38.3977 7.62562 38.3977 6.64166C38.3977 5.32221 37.8676 4.0568 36.9239 3.12381C35.9801 2.19081 34.7002 1.66666 33.3656 1.66666Z" fill="#6C757D"></path>
    <path d="M33.3656 28.3333C32.3703 28.3333 31.3974 28.6251 30.5698 29.1718C29.7423 29.7184 29.0973 30.4954 28.7164 31.4045C28.3356 32.3135 28.2359 33.3138 28.4301 34.2789C28.6242 35.244 29.1035 36.1304 29.8073 36.8262C30.511 37.5219 31.4077 37.9958 32.3838 38.1877C33.36 38.3797 34.3718 38.2812 35.2913 37.9046C36.2108 37.5281 36.9967 36.8904 37.5497 36.0723C38.1026 35.2542 38.3977 34.2923 38.3977 33.3083C38.3977 31.9889 37.8676 30.7235 36.9239 29.7905C35.9801 28.8575 34.7002 28.3333 33.3656 28.3333Z" fill="#6C757D"></path>
    <path d="M6.69881 15C5.70354 15 4.73062 15.2918 3.90308 15.8384C3.07554 16.3851 2.43055 17.1621 2.04968 18.0711C1.66881 18.9802 1.56915 19.9805 1.76332 20.9456C1.95749 21.9106 2.43676 22.7971 3.14052 23.4929C3.84428 24.1886 4.74093 24.6624 5.71708 24.8544C6.69323 25.0464 7.70503 24.9478 8.62454 24.5713C9.54405 24.1948 10.33 23.5571 10.8829 22.739C11.4359 21.9208 11.731 20.959 11.731 19.975C11.731 18.6555 11.2008 17.3901 10.2571 16.4571C9.31338 15.5242 8.03343 15 6.69881 15Z" fill="#6C757D"></path>
    <path d="M6.69881 1.66666C5.70354 1.66666 4.73062 1.95844 3.90308 2.5051C3.07554 3.05176 2.43055 3.82875 2.04968 4.73781C1.66881 5.64688 1.56915 6.64718 1.76332 7.61224C1.95749 8.57729 2.43676 9.46375 3.14052 10.1595C3.84428 10.8553 4.74093 11.3291 5.71708 11.5211C6.69323 11.713 7.70503 11.6145 8.62454 11.238C9.54405 10.8614 10.33 10.2238 10.8829 9.40562C11.4359 8.58749 11.731 7.62562 11.731 6.64166C11.731 5.32221 11.2008 4.0568 10.2571 3.12381C9.31338 2.19081 8.03343 1.66666 6.69881 1.66666Z" fill="#6C757D"></path>
    <path d="M6.69881 28.3333C5.70354 28.3333 4.73062 28.6251 3.90308 29.1718C3.07554 29.7184 2.43055 30.4954 2.04968 31.4045C1.66881 32.3135 1.56915 33.3138 1.76332 34.2789C1.95749 35.244 2.43676 36.1304 3.14052 36.8262C3.84428 37.5219 4.74093 37.9958 5.71708 38.1877C6.69323 38.3797 7.70503 38.2812 8.62454 37.9046C9.54405 37.5281 10.33 36.8904 10.8829 36.0723C11.4359 35.2542 11.731 34.2923 11.731 33.3083C11.731 31.9889 11.2008 30.7235 10.2571 29.7905C9.31338 28.8575 8.03343 28.3333 6.69881 28.3333Z" fill="#6C757D"></path>
</svg>