<svg xmlns="http://www.w3.org/2000/svg" xmlns:xlink="http://www.w3.org/1999/xlink" aria-hidden="true" role="img" class="iconify iconify--gg" width="70" height="70" preserveAspectRatio="xMidYMid meet" viewBox="0 0 24 24">
    <path fill="#8E8E93" d="M8 6a2 2 0 1 1-4 0a2 2 0 0 1 4 0Zm0 6a2 2 0 1 1-4 0a2 2 0 0 1 4 0Zm-2 8a2 2 0 1 0 0-4a2 2 0 0 0 0 4Zm8-14a2 2 0 1 1-4 0a2 2 0 0 1 4 0Zm-2 8a2 2 0 1 0 0-4a2 2 0 0 0 0 4Zm2 4a2 2 0 1 1-4 0a2 2 0 0 1 4 0Zm4-10a2 2 0 1 0 0-4a2 2 0 0 0 0 4Zm2 4a2 2 0 1 1-4 0a2 2 0 0 1 4 0Zm-2 8a2 2 0 1 0 0-4a2 2 0 0 0 0 4Z"></path>
</svg>