<svg width="73" height="72" viewBox="0 0 73 72" fill="none" xmlns="http://www.w3.org/2000/svg">
<rect x="0.5" width="72" height="72" rx="16" fill="#090A0B"/>
<g clip-path="url(#clip0_881_7190)">
<path d="M40.25 18.5C40.9375 18.5 41.5 19.0594 41.5 19.75V23.5C42.8828 23.5 44 24.6172 44 26V33.5C44 34.8828 42.8828 36 41.5 36V39.75C41.5 40.4375 40.9375 41 40.25 41C39.5625 41 39 40.4375 39 39.75V36C37.6172 36 36.5 34.8828 36.5 33.5V26C36.5 24.6172 37.6172 23.5 39 23.5V19.75C39 19.0594 39.5625 18.5 40.25 18.5ZM49 27.25C49 26.5625 49.5625 26 50.25 26C50.9375 26 51.5 26.5625 51.5 27.25V31C52.8828 31 54 32.1172 54 33.5V38.5C54 39.8828 52.8828 41 51.5 41V44.75C51.5 45.4375 50.9375 46 50.25 46C49.5625 46 49 45.4375 49 44.75V41C47.6172 41 46.5 39.8828 46.5 38.5V33.5C46.5 32.1172 47.6172 31 49 31V27.25ZM26.5 28.5C26.5 27.1172 27.6172 26 29 26V22.25C29 21.5594 29.5625 21 30.25 21C30.9375 21 31.5 21.5594 31.5 22.25V26C32.8828 26 34 27.1172 34 28.5V38.5C34 39.8828 32.8828 41 31.5 41V44.75C31.5 45.4375 30.9375 46 30.25 46C29.5625 46 29 45.4375 29 44.75V41C27.6172 41 26.5 39.8828 26.5 38.5V28.5Z" fill="white"/>
<path opacity="0.4" d="M19 18.5C20.3805 18.5 21.5 19.6195 21.5 21V47.25C21.5 47.9375 22.0594 48.5 22.75 48.5H54C55.3828 48.5 56.5 49.6172 56.5 51C56.5 52.3828 55.3828 53.5 54 53.5H22.75C19.2984 53.5 16.5 50.7031 16.5 47.25V21C16.5 19.6195 17.6195 18.5 19 18.5Z" fill="white"/>
</g>
<defs>
<clipPath id="clip0_881_7190">
<rect width="40" height="40" fill="white" transform="translate(16.5 16)"/>
</clipPath>
</defs>
</svg>
