<svg width="50" height="30" viewBox="0 0 50 30" fill="none" xmlns="http://www.w3.org/2000/svg">
    <rect x="1" y="1" width="48" height="28" rx="14" fill="white" stroke="#6C757D" />
    <path opacity="0.4" d="M23.0892 13.4375H20.4106V11.0469C20.4106 8.26445 22.6941 6 25.4999 6C28.3057 6 30.5892 8.26445 30.5892 11.0469V13.4375H27.9106V11.0469C27.9106 10.4128 27.6567 9.80478 27.2046 9.35645C26.7525 8.90812 26.1393 8.65625 25.4999 8.65625C24.8606 8.65625 24.2474 8.90812 23.7953 9.35645C23.3432 9.80478 23.0892 10.4128 23.0892 11.0469V13.4375Z" fill="#6C757D" />
    <path d="M33 15.0312V21.4062C33 21.8289 32.8307 22.2343 32.5293 22.5332C32.2279 22.8321 31.8191 23 31.3929 23H19.6071C19.1809 23 18.7721 22.8321 18.4707 22.5332C18.1693 22.2343 18 21.8289 18 21.4062V15.0312C18 14.6086 18.1693 14.2032 18.4707 13.9043C18.7721 13.6054 19.1809 13.4375 19.6071 13.4375H31.3929C31.8191 13.4375 32.2279 13.6054 32.5293 13.9043C32.8307 14.2032 33 14.6086 33 15.0312Z" fill="#6C757D" />
</svg>
    