<svg width="300" height="300" viewBox="0 0 300 300" fill="none" xmlns="http://www.w3.org/2000/svg">
<path d="M137.326 252C118.7 252 102.625 247.416 89.1013 238.247C75.5779 229.079 65.1163 216.854 57.7167 201.573C50.5722 186.037 47 168.974 47 150.382C47 131.026 51.0826 113.708 59.2477 98.427C67.4128 82.8914 79.1501 70.6667 94.4597 61.7528C110.024 52.5843 128.651 48 150.34 48C171.518 48 189.634 52.5843 204.689 61.7528C219.743 70.6667 231.225 82.8914 239.135 98.427C247.045 113.708 251 130.772 251 149.618V247.416H206.985V211.124H206.22C200.351 221.82 191.931 231.371 180.959 239.775C169.987 247.925 155.443 252 137.326 252ZM149.191 214.562C160.674 214.562 170.625 211.76 179.045 206.157C187.72 200.3 194.482 192.532 199.33 182.854C204.178 172.921 206.475 161.843 206.22 149.618C206.22 137.393 203.923 126.569 199.33 117.146C194.737 107.468 188.231 99.8277 179.811 94.2247C171.39 88.367 161.311 85.4382 149.574 85.4382C137.326 85.4382 126.865 88.367 118.189 94.2247C109.769 99.8277 103.135 107.596 98.2871 117.528C93.6942 127.206 91.3978 138.03 91.3978 150C91.3978 161.97 93.6942 172.921 98.2871 182.854C102.88 192.532 109.386 200.3 117.807 206.157C126.482 211.76 136.944 214.562 149.191 214.562Z" fill="#1C1C1E"/>
</svg>
