<svg width="108" height="107" viewBox="0 0 108 107" xmlns="http://www.w3.org/2000/svg">
<path  d="M47.8966 106.66C38.1578 106.66 29.753 104.263 22.6824 99.4695C15.6117 94.6758 10.142 88.2841 6.27314 80.2946C2.5377 72.172 0.669983 63.2503 0.669983 53.5298C0.669983 43.4097 2.80452 34.3549 7.07359 26.3654C11.3427 18.2427 17.4794 11.8511 25.4839 7.19056C33.6219 2.39685 43.3607 0 54.7004 0C65.7733 0 75.2453 2.39685 83.1164 7.19056C90.9875 11.8511 96.9909 18.2427 101.127 26.3654C105.262 34.3549 107.33 43.2765 107.33 53.1303V104.263H84.3171V85.2881H83.9168C80.8485 90.8807 76.446 95.8742 70.7094 100.268C64.9728 104.529 57.3686 106.66 47.8966 106.66ZM54.1001 87.0857C60.1034 87.0857 65.3064 85.621 69.7088 82.6915C74.2447 79.6288 77.7801 75.5675 80.3148 70.5075C82.8496 65.3143 84.0503 59.5219 83.9168 53.1303C83.9168 46.7387 82.7162 41.0794 80.3148 36.1526C77.9135 31.0925 74.5116 27.0978 70.1091 24.1683C65.7066 21.1056 60.437 19.5743 54.3002 19.5743C47.8966 19.5743 42.4268 21.1056 37.8909 24.1683C33.4885 27.0978 30.0198 31.1591 27.4851 36.3523C25.0837 41.4123 23.883 47.0716 23.883 53.33C23.883 59.5885 25.0837 65.3143 27.4851 70.5075C29.8864 75.5675 33.2883 79.6288 37.6908 82.6915C42.2267 85.621 47.6965 87.0857 54.1001 87.0857Z" fill="#00FF00"/>
</svg>
